<svg version="1.2" xmlns="http://www.w3.org/2000/svg" viewBox="0 0 1500 1000" width="1500" height="1000">
	<title>2052635-ai</title>
	<defs>
		<linearGradient id="g1" x2="1" gradientUnits="userSpaceOnUse" gradientTransform="matrix(1133.738,0,0,1000,366.262,0)">
			<stop offset=".432" stop-color="#7a478c"/>
			<stop offset=".865" stop-color="#7a478c"/>
		</linearGradient>
		<linearGradient id="g2" x2="1" gradientUnits="userSpaceOnUse" gradientTransform="matrix(1091.802,0,0,1000,408.198,0)">
			<stop offset=".432" stop-color="#7a478c"/>
			<stop offset=".865" stop-color="#7a478c"/>
		</linearGradient>
	</defs>
	<style>
		.s0 { opacity: .2;mix-blend-mode: multiply;fill: url(#g1) } 
		.s1 { opacity: .2;mix-blend-mode: multiply;fill: url(#g2) } 
		.s2 { opacity: .2;fill: #b0affd } 
		.s3 { fill: #e1e1fe } 
		.s4 { fill: #b0affd } 
		.s5 { fill: #9797ef } 
		.s6 { fill: #8888e9 } 
		.s7 { fill: #827cdc } 
		.s8 { fill: #3d38a0 } 
		.s9 { fill: #ffffff } 
		.s10 { fill: #eaeaea } 
		.s11 { fill: #927ddb } 
		.s12 { opacity: .5;fill: #b0affd } 
		.s13 { opacity: .3;fill: #b0affd } 
		.s14 { opacity: .5;mix-blend-mode: multiply;fill: #b0affd } 
		.s15 { opacity: .5;mix-blend-mode: screen;fill: #ffffff } 
		.s16 { fill: #cfcfff } 
		.s17 { fill: #6969cc } 
		.s18 { fill: #ffc064 } 
		.s19 { fill: #af835b } 
		.s20 { fill: #ea8237 } 
		.s21 { fill: #e9a056 } 
		.s22 { fill: #d38c4c } 
		.s23 { fill: #4444ad } 
		.s24 { fill: #b9c9ef } 
		.s25 { fill: #262691 } 
		.s26 { opacity: .5;mix-blend-mode: screen;fill: #8eb9bf } 
		.s27 { fill: #a4a4f7 } 
		.s28 { fill: #0a0a0a } 
		.s29 { fill: #fefefe } 
		.s30 { fill: none;stroke: #fefefe;stroke-miterlimit:10;stroke-width: .5 } 
		.s31 { fill: none;stroke: #fefefe;stroke-miterlimit:10;stroke-width: .4 } 
		.s32 { fill: #173a2c } 
		.s33 { fill: #81172b } 
		.s34 { fill: none;stroke: #0a0a0a;stroke-linecap: round;stroke-miterlimit:10;stroke-width: .5 } 
		.s35 { fill: #989898 } 
		.s36 { opacity: .3;fill: #020202 } 
		.s37 { fill: #020202 } 
		.s38 { opacity: .5;mix-blend-mode: multiply;fill: #020202 } 
		.s39 { fill: #5858c4 } 
		.s40 { fill: #d8826a } 
		.s41 { fill: #5146af } 
		.s42 { fill: #ed9c80 } 
		.s43 { opacity: .5;mix-blend-mode: multiply;fill: #013651 } 
		.s44 { fill: #2c1e56 } 
		.s45 { fill: #ffbfae } 
		.s46 { fill: #ff8a29 } 
		.s47 { fill: #f47211 } 
		.s48 { fill: none;stroke: #827cdc;stroke-miterlimit:10;stroke-width: 2 } 
		.s49 { fill: none;stroke: #827cdc;stroke-miterlimit:10;stroke-width: .9 } 
		.s50 { fill: none;stroke: #d3bbf9;stroke-linecap: round;stroke-linejoin: round;stroke-width: 2.2 } 
		.s51 { fill: none;stroke: #3d38a0;stroke-linecap: round;stroke-linejoin: round;stroke-width: 2.7 } 
		.s52 { opacity: .3;mix-blend-mode: multiply;fill: #827cdc } 
	</style>
	<g id="BACKGROUND">
		<g id="BACKGROUND 2 ">
			<g id="&lt;Group&gt;">
				<g id="&lt;Group&gt;">
					<path id="&lt;Path&gt;" class="s0" d="m378 0c0 0-86.6 292.1 210 375.6 296.6 83.4 766-56.9 854 96.8 88 153.6-312.1 239.6-344 527.6h402v-1000z"/>
					<path id="&lt;Path&gt;" class="s1" d="m696.8 0c0 0-77.9 204.4 60.8 368.4 112.7 133.4 420.2 66.7 496.6 180.8 76.5 114.1-681-120.3-846 450.8h1091.8v-1000z"/>
				</g>
			</g>
		</g>
	</g>
	<g id="OBJECTS">
		<g id="&lt;Group&gt;">
			<g id="&lt;Group&gt;">
				<g id="&lt;Group&gt;">
					<g id="&lt;Group&gt;">
						<path id="&lt;Path&gt;" class="s2" d="m1116.3 108.6c0 0-138.8-6.4-169.4 194.3-17.1 75.8-75.5 182.9-194.3 205.2-118.8 22.3-194.7 66.9-236.5 232-13.1 33.5-57.9 138.3-168.1 131.6 437.6 0 1008.6 0 1008.6 0v-763.1z"/>
						<g id="&lt;Group&gt;">
							<path id="&lt;Path&gt;" class="s3" d="m1310.3 702.9c0 4.8-115.1 8.7-257.1 8.7-142 0-257.2-3.9-257.2-8.7 0-4.9 115.2-8.8 257.2-8.8 142 0 257.1 3.9 257.1 8.8z"/>
							<path id="&lt;Path&gt;" class="s3" d="m1104.7 742.1c0 3.4-100.4 6.2-224.3 6.2-123.9 0-224.3-2.8-224.3-6.2 0-3.5 100.4-6.3 224.3-6.3 123.9 0 224.3 2.8 224.3 6.3z"/>
							<path id="&lt;Path&gt;" class="s4" d="m1179.2 637.9q0.1 0.5 0 0.7 0.3-0.8 0.3-1.6 1.8-6.4 4.4-12.5 0.5-1.3 1.1-2.5c1.9-0.7 6.6-1.2 7.9-1.6 2.5-0.8 5.8-1.8 8-3.5 0.8-0.7 3-3.1 1.9-4.4-1.3-1.4-5.8 1.5-6.9 2.2-2.4 1.6-4.6 3.6-7.2 4.9-1.1 0.6-2.4 1.1-3.5 1.8q2.5-5.4 5.7-10.5c1.9-0.7 6.7-1.2 8-1.6 2.5-0.8 5.8-1.8 8-3.5 0.8-0.7 3-3.2 1.9-4.4-1.3-1.4-5.8 1.4-6.9 2.2-2.4 1.5-4.6 3.5-7.2 4.8-1.1 0.6-2.4 1.1-3.5 1.9 2.3-3.6 4.7-7 7.5-10.2q2.8-3.3 5.9-6.3c2.3 0.1 5.4 0.6 6.5 0.5 2.7-0.1 6.1-0.2 8.6-1.2 1-0.5 3.7-2.3 3-3.8-0.9-1.7-6-0.1-7.2 0.3-2.8 0.9-5.4 2.2-8.2 2.8q-0.8 0.2-1.6 0.3 4.3-4 9.1-7.3c1 0.2 2 0.2 3 0.4 2.4 0.3 4.8 1.3 7.2 1.8 1.1 0.3 5.5 1.3 6.1-0.2 0.5-1.3-1.9-2.6-2.8-3-2.2-0.7-5.2-0.6-7.5-0.5-0.8 0-3.2 0.6-5.1 0.9q2.3-1.6 4.7-3 3.8-2.2 7.8-4c1.1 0.4 2.4 0.5 3.6 0.6 2.5 0.3 4.8 1.3 7.2 1.9 1.1 0.3 5.6 1.3 6.2-0.2 0.5-1.3-2-2.7-2.9-3-2.2-0.8-5.1-0.6-7.4-0.5-1 0-4 0.7-6 0.9q5.4-2.3 11-3.8c1.1 0.2 2.1 0.3 3.2 0.4 2.5 0.2 4.8 1.2 7.2 1.7 1.1 0.3 5.6 1.2 6.2-0.3 0.5-1.4-2-2.7-2.9-3-2.3-0.7-5.2-0.5-7.5-0.4-0.3 0.1-0.8 0.1-1.4 0.3q-3 0.3-6 0.8-0.1 0-0.2 0 0.1 0 0.2 0-4 0.8-8 2.1c0.8-0.6 1.4-1.4 2.1-2.1 1.7-1.8 3.9-3.1 5.8-4.7 0.9-0.7 4.3-3.6 3.5-5-0.7-1.2-3.3-0.1-4.1 0.4-1.9 1.3-3.5 3.8-4.8 5.6-0.7 0.9-2.2 4.6-3.3 6.1q-3.6 1.2-7.2 2.8c0.9-0.8 1.5-1.9 2.2-2.8 1.4-2 3.3-3.6 5-5.5 0.7-0.8 3.7-4.3 2.7-5.5-1-1.1-3.3 0.4-4 1-1.7 1.6-2.9 4.3-3.9 6.4-0.6 1-1.6 5.3-2.5 6.7q-1.4 0.7-2.8 1.4c-3.8 2-7.5 4.4-10.9 7.1 0.1-0.7 0.3-1.4 0.4-2.1 0.5-2.4 1.7-4.6 2.5-7 0.4-1.1 1.8-5.4 0.4-6.1-1.3-0.7-2.9 1.6-3.3 2.5-0.9 2.1-1 5-1.2 7.3 0 1 0.4 4 0.4 6q-4.9 4-9.2 8.7c0.3-0.8 0.5-1.7 0.8-2.4 0.6-1.8 1.4-3.6 2.2-5.4 1.4-2.8 3-5.4 5-7.7 1.1-1.1 0-3-1.5-2.6q-0.1 0-0.2 0.1c-2.4 0.7-3.7 3.3-4.7 5.7-0.7 1.8-4.8 11.5-3.4 14.3-3.1 3.8-5.9 7.8-8.3 12 0.5-2.4 1.6-4.5 2.4-6.8 0.4-1.1 1.8-5.4 0.3-6.2-1.2-0.6-2.8 1.6-3.2 2.5-1 2.2-1 5.1-1.2 7.4 0 0.9 0.3 3.4 0.4 5.3q-2.8 5.1-4.8 10.6-0.1-0.8-0.1-1.5c-0.1-2.5 0.5-4.9 0.7-7.4 0-1.2 0.3-5.7-1.2-6.1-1.4-0.3-2.4 2.3-2.5 3.3-0.4 2.3 0.2 5.1 0.6 7.4 0.2 1 1.4 3.8 1.9 5.7q-1.5 4.2-2.6 8.5c-0.1-2.3 0.1-4.5 0.1-6.7 0-1.1-0.1-5.7-1.7-5.9-1.4-0.3-2.1 2.4-2.2 3.4-0.2 2.3 0.7 5.1 1.3 7.4 0.2 0.7 1.1 2.6 1.8 4.3-1.2 5.5-6.6 10.5-6.9 16.1 0.7-4.9 6.4-9.2 7.7-13.9z"/>
							<path id="&lt;Path&gt;" class="s4" d="m898.8 535.4q0.1 0.5 0.2 0.7-0.5-0.6-0.8-1.4-4-5.3-8.6-10.1-0.9-1-1.9-1.9c-2.1 0-6.6 1.3-7.9 1.3-2.7 0.2-6.1 0.5-8.7-0.4-1.1-0.3-4-1.8-3.4-3.4 0.7-1.8 5.9-0.7 7.2-0.4 2.8 0.6 5.6 1.7 8.5 2 1.3 0.1 2.6 0.1 3.9 0.4q-4.3-4.2-9.1-7.8c-2 0-6.7 1.3-8 1.4-2.7 0.1-6.1 0.4-8.7-0.4-1.1-0.4-4-1.9-3.4-3.4 0.7-1.8 5.9-0.8 7.2-0.5 2.8 0.6 5.6 1.7 8.5 2 1.3 0.1 2.6 0.1 3.9 0.5-3.4-2.6-6.9-4.9-10.6-6.9q-3.8-2.1-7.8-3.8c-2.1 1-4.9 2.6-5.8 2.9-2.6 0.8-5.8 2-8.5 1.9-1.2-0.1-4.3-0.8-4.2-2.4 0.2-1.9 5.5-2.3 6.8-2.3 2.9-0.2 5.9 0.1 8.7-0.4q0.8-0.1 1.6-0.3-5.5-2.1-11.2-3.5c-0.8 0.5-1.7 0.9-2.6 1.4-2.2 1.2-4 2.9-6 4.3-1 0.7-4.7 3.2-5.8 2-1-1 0.8-3.1 1.5-3.8 1.8-1.5 4.6-2.4 6.8-3.1 0.8-0.3 3.2-0.7 5.1-1.1q-2.7-0.6-5.4-1.1-4.4-0.6-8.7-0.9c-1 0.8-2.1 1.3-3.2 1.9-2.2 1.2-4 2.9-6.1 4.3-0.9 0.7-4.7 3.2-5.8 2-1-1 0.8-3.2 1.6-3.8 1.8-1.5 4.6-2.4 6.7-3.2 0.9-0.3 4-0.7 6-1.2q-5.9-0.3-11.7 0.4c-0.9 0.6-1.9 1-2.8 1.5-2.2 1.1-4.1 2.8-6.2 4.2-0.9 0.6-4.7 3.1-5.8 1.9-0.9-1.1 0.9-3.2 1.7-3.8 1.8-1.5 4.6-2.3 6.8-3 0.2-0.1 0.8-0.2 1.4-0.4q2.9-0.8 5.9-1.3 0.1 0 0.1-0.1-0.1 0-0.1 0.1 4-0.7 8.2-0.9c-1-0.4-1.8-0.9-2.7-1.3-2.3-1-4.8-1.4-7.1-2.2-1.1-0.4-5.4-1.9-5.1-3.5 0.3-1.4 3-1.2 4-1 2.2 0.5 4.6 2.2 6.5 3.5 1 0.6 3.7 3.4 5.2 4.4q3.9-0.1 7.7 0.1c-1-0.4-2-1.2-3-1.9-2-1.3-4.4-2.1-6.6-3.3-1-0.5-5-2.6-4.5-4.2 0.5-1.3 3.2-0.8 4.1-0.4 2.2 0.9 4.2 2.9 5.9 4.5 0.9 0.8 3.4 4.4 4.7 5.4q1.6 0.1 3.1 0.3c4.4 0.5 8.6 1.5 12.8 2.7-0.4-0.6-0.7-1.2-1.1-1.8-1.4-2.1-3.3-3.7-4.9-5.6-0.7-0.9-3.6-4.4-2.5-5.6 0.9-1.1 3.2 0.5 3.9 1.1 1.7 1.7 2.8 4.4 3.8 6.5 0.4 0.9 1 3.8 1.7 5.7q6.1 1.9 11.7 4.8c-0.5-0.7-1-1.4-1.5-1.9q-1.9-2.3-4.1-4.3c-2.2-2.1-4.7-4-7.4-5.4-1.4-0.7-1-2.8 0.5-3q0.1 0 0.2 0c2.6-0.1 4.7 1.8 6.4 3.7 1.4 1.4 8.6 9 8.4 12.2 4.2 2.3 8.3 5.1 12 8.1-1.3-2-3.1-3.6-4.7-5.5-0.7-0.8-3.6-4.4-2.5-5.6 0.9-1.1 3.2 0.5 3.9 1.2 1.7 1.7 2.8 4.4 3.8 6.5 0.3 0.7 0.9 3.2 1.5 5.1q4.4 3.7 8.3 8.1-0.2-0.7-0.4-1.4c-0.9-2.4-2.3-4.5-3.3-6.7-0.5-1-2.4-5.2-1.1-6.1 1.2-0.8 3 1.3 3.5 2.1 1.2 2 1.6 5 2 7.2 0.2 1 0.1 4 0.3 6q2.9 3.4 5.5 7c-0.6-2.1-1.7-4.1-2.5-6.2-0.4-1-2-5.3-0.6-6.1 1.3-0.8 2.9 1.5 3.4 2.4 1 2.1 1.2 5 1.4 7.3 0.1 0.8-0.1 2.9-0.2 4.8 3.2 4.6 10 7.3 12.3 12.4-2.4-4.3-9.3-6.3-12.2-10.2z"/>
							<path id="&lt;Path&gt;" class="s4" d="m941.7 568.7q0.2 0.5 0.4 0.6-0.6-0.5-1.1-1.1-5.4-4-11.2-7.3-1.1-0.7-2.3-1.3c-2 0.6-6 3.1-7.3 3.6-2.5 0.9-5.7 2.1-8.4 2.1-1.1-0.1-4.3-0.7-4.2-2.4 0.1-1.9 5.4-2.3 6.7-2.4 2.9-0.2 5.9 0 8.7-0.5 1.3-0.3 2.6-0.7 3.9-0.7q-5.3-2.8-10.9-4.9c-1.9 0.6-6 3.2-7.3 3.6-2.5 0.9-5.7 2.1-8.5 2.1-1.1-0.1-4.3-0.7-4.1-2.4 0.1-1.9 5.4-2.3 6.7-2.4 2.9-0.2 5.8 0 8.7-0.5 1.3-0.2 2.6-0.6 3.9-0.7-4-1.4-8-2.7-12.1-3.5q-4.3-1-8.6-1.4c-1.8 1.5-3.9 3.7-4.8 4.3-2.2 1.6-4.9 3.6-7.6 4.3-1.1 0.2-4.3 0.5-4.6-1.2-0.4-1.9 4.6-3.7 5.8-4.1 2.8-1 5.7-1.5 8.3-2.8q0.7-0.3 1.4-0.7-5.9-0.6-11.7-0.3c-0.6 0.8-1.4 1.4-2.1 2.1-1.8 1.8-3 4-4.6 5.9-0.7 0.9-3.6 4.4-5 3.6-1.2-0.8-0.1-3.3 0.5-4.1 1.2-2 3.7-3.6 5.5-5 0.7-0.5 2.9-1.5 4.6-2.4q-2.8 0.1-5.5 0.5-4.3 0.6-8.6 1.6c-0.7 1-1.6 1.8-2.5 2.7-1.8 1.7-3 3.9-4.6 5.8-0.7 0.9-3.6 4.4-5 3.6-1.2-0.7-0.1-3.3 0.4-4.1 1.3-2 3.7-3.6 5.6-5 0.8-0.5 3.6-1.8 5.3-2.8q-5.6 1.4-11.1 3.6c-0.6 0.9-1.5 1.5-2.2 2.3-1.8 1.7-3.1 3.8-4.7 5.8-0.7 0.8-3.7 4.3-5.1 3.4-1.2-0.7 0-3.3 0.5-4.1 1.4-1.9 3.8-3.5 5.7-4.8 0.2-0.2 0.7-0.4 1.3-0.7q2.5-1.6 5.2-3 0.1 0 0.1-0.1 0 0.1 0 0.1 3.6-1.8 7.5-3.2c-0.9 0-1.9-0.3-2.9-0.4-2.5-0.4-5-0.1-7.4-0.2-1.2 0-5.7-0.2-5.9-1.8-0.1-1.5 2.6-2.1 3.5-2.2 2.3-0.1 5.1 0.8 7.3 1.5 1.1 0.4 4.5 2.3 6.2 2.8q3.7-1.2 7.5-2.1c-1.2-0.1-2.3-0.6-3.4-0.9-2.4-0.8-4.9-0.9-7.4-1.3-1-0.2-5.5-1.2-5.4-2.8 0-1.4 2.8-1.6 3.7-1.5 2.4 0.2 4.9 1.6 7 2.6 1.1 0.5 4.5 3.2 6 3.8q1.6-0.3 3.1-0.6c4.3-0.7 8.7-1 13.1-1-0.6-0.4-1.1-0.9-1.7-1.4-1.9-1.6-4.2-2.6-6.2-4-1-0.6-4.7-3.2-4-4.7 0.5-1.3 3.2-0.4 4 0 2.1 1.1 4 3.4 5.5 5.2 0.6 0.7 2.1 3.3 3.3 4.9q6.3 0.2 12.6 1.3c-0.7-0.5-1.4-1-2-1.4q-2.5-1.6-5.1-2.9c-2.8-1.4-5.7-2.5-8.7-3.1-1.5-0.3-1.8-2.4-0.3-3q0.1 0 0.1-0.1c2.4-0.8 5 0.5 7.2 1.7 1.7 1 10.8 6.2 11.5 9.3 4.7 1.1 9.4 2.6 13.9 4.4-1.9-1.5-4.1-2.6-6.1-3.9-0.9-0.6-4.7-3.2-4-4.7 0.6-1.3 3.2-0.4 4.1 0.1 2 1.1 3.9 3.4 5.4 5.1 0.6 0.6 1.8 2.8 2.9 4.4q5.3 2.4 10.3 5.5-0.4-0.7-0.8-1.2c-1.5-2.1-3.4-3.7-5.1-5.5-0.8-0.9-3.8-4.3-2.7-5.6 0.9-1.1 3.2 0.4 3.9 1.1 1.7 1.6 3 4.2 4 6.3 0.4 0.9 1.2 3.8 2 5.7q3.7 2.4 7.2 5.1c-1.2-1.9-2.8-3.5-4.1-5.2-0.7-0.9-3.4-4.6-2.3-5.8 1-1 3.2 0.7 3.8 1.4 1.6 1.7 2.7 4.5 3.5 6.6 0.3 0.8 0.7 2.9 1.2 4.6 4.3 3.6 11.7 4.3 15.3 8.5-3.6-3.4-10.7-3.4-14.6-6.3z"/>
							<g id="&lt;Group&gt;">
								<path id="&lt;Path&gt;" class="s4" d="m1131 616.7c0.1 0.1-0.5-10.7 14.7-21.7 15.6-11.7 50-11.4 54-22.4 4.1-11.8-17.4-8.4-27.1-16.6-9.7-8.5-13-12.4-0.1-15.4 12.8-2.9 20.6-4.2 20.2-14.9-0.5-10.9 21-6.4 31.4-14.6 10.7-8.3 4.3-18.8-16.5-17.4-20.4 1.8-21.2-1.6-15.4-4.9 5.6-3.4 23.3-9.4 15.6-14.7-8-5.3-19.2 0-13.4-7.1 5.7-7.2 19.8-12.8 12.6-20.1-7.2-7.5-25.1-6.2-34.6 14.2-9.2 20.3-12.4 26-22.2 28.5-9.5 2.6-18.9-7.5-30.6-2.8-11.6 4.8-9 16-1.7 23.2 7.4 7.3 19.9 21.7 12.9 28.6-6.8 6.9-15.6-2.7-25.9-4.1-11.4-1.6-24 8.6-12.8 23.8 11.6 14.9 29.1 26.4 30.7 61.8q4.1-1.8 8.2-3.4z"/>
								<g id="&lt;Group&gt;">
									<g id="&lt;Group&gt;" style="opacity: .7">
										<path id="&lt;Path&gt;" class="s5" d="m1126.4 619.2c0.3 0 0.6-0.2 0.6-0.5 23.4-123.6 70.3-170.1 70.8-170.6 0.2-0.2 0.2-0.6 0-0.9-0.2-0.2-0.6-0.2-0.9 0-0.4 0.5-47.6 47.3-71.1 171.3 0 0.3 0.2 0.6 0.5 0.7q0.1 0 0.1 0z"/>
									</g>
									<g id="&lt;Group&gt;" style="opacity: .7">
										<path id="&lt;Path&gt;" class="s5" d="m1170 488.2q0.2 0 0.4-0.1c15.1-10.5 33.2-10.9 33.3-10.9 0.4 0 0.6-0.3 0.6-0.6 0-0.4-0.2-0.6-0.6-0.6-0.2 0-18.6 0.4-34 11.1-0.3 0.2-0.4 0.6-0.2 0.8q0.2 0.3 0.5 0.3z"/>
									</g>
									<g id="&lt;Group&gt;" style="opacity: .7">
										<path id="&lt;Path&gt;" class="s5" d="m1153.3 524.2q0.2 0.1 0.4-0.1c0.3-0.2 0.3-0.6 0.1-0.9-0.2-0.1-14.7-16.7-34.1-31.1-0.3-0.2-0.6-0.1-0.9 0.2-0.2 0.2-0.1 0.6 0.2 0.8 19.2 14.3 33.7 30.8 33.8 30.9q0.2 0.2 0.5 0.2z"/>
									</g>
									<g id="&lt;Group&gt;" style="opacity: .7">
										<path id="&lt;Path&gt;" class="s5" d="m1156.5 516.3q0.2 0 0.3-0.1c28.4-11.1 60-11.4 60.3-11.4 0.4 0 0.6-0.3 0.6-0.6 0-0.4-0.2-0.6-0.6-0.6-0.3 0-32.2 0.3-60.7 11.5-0.3 0.1-0.5 0.5-0.4 0.8 0.1 0.2 0.3 0.3 0.5 0.4z"/>
									</g>
									<g id="&lt;Group&gt;" style="opacity: .7">
										<path id="&lt;Path&gt;" class="s5" d="m1135.1 580.2q0.1 0 0.3 0c19.4-9 52.1-10.2 52.4-10.2 0.4 0 0.6-0.3 0.6-0.6 0-0.4-0.3-0.6-0.6-0.6-0.4 0-33.3 1.2-52.9 10.2-0.3 0.2-0.5 0.5-0.3 0.9 0.1 0.2 0.3 0.3 0.5 0.3z"/>
									</g>
									<g id="&lt;Group&gt;" style="opacity: .7">
										<path id="&lt;Path&gt;" class="s5" d="m1132.9 588.8q0.2 0 0.3 0c0.3-0.2 0.5-0.5 0.4-0.8-9-24.2-32.4-43.3-32.6-43.5-0.3-0.2-0.6-0.1-0.8 0.1-0.3 0.3-0.2 0.7 0 0.9 0.3 0.2 23.4 19 32.2 42.9 0.1 0.2 0.3 0.4 0.5 0.4z"/>
									</g>
								</g>
							</g>
							<g id="&lt;Group&gt;">
								<path id="&lt;Path&gt;" class="s4" d="m945.2 577.3c-0.1 0.2 0.5-10.6-14.8-21.7-15.5-11.7-50-11.4-53.9-22.4-4.1-11.8 17.4-8.3 27-16.6 9.8-8.4 13.1-12.4 0.2-15.4-12.8-2.8-20.6-4.2-20.2-14.9 0.4-10.8-21-6.3-31.4-14.6-10.7-8.3-4.3-18.7 16.4-17.4 20.4 1.8 21.3-1.6 15.5-4.9-5.7-3.3-23.4-9.4-15.6-14.6 8-5.4 19.2 0 13.4-7.2-5.8-7.2-19.9-12.7-12.7-20.1 7.2-7.5 25.1-6.2 34.6 14.2 9.3 20.3 12.4 26 22.2 28.5 9.5 2.6 19-7.5 30.7-2.8 11.6 4.9 8.9 16 1.7 23.3-7.5 7.2-20 21.6-12.9 28.5 6.7 6.9 15.6-2.6 25.9-4.1 11.4-1.5 23.9 8.6 12.7 23.8-11.6 14.9-29.1 26.4-30.7 61.8q-4-1.7-8.1-3.4z"/>
								<g id="&lt;Group&gt;">
									<g id="&lt;Group&gt;" style="opacity: .7">
										<path id="&lt;Path&gt;" class="s5" d="m949.8 579.8c-0.3 0-0.6-0.2-0.7-0.5-23.3-123.5-70.3-170.1-70.7-170.6-0.3-0.2-0.3-0.6 0-0.8 0.2-0.3 0.6-0.3 0.8-0.1 0.5 0.5 47.7 47.4 71.1 171.3 0.1 0.3-0.1 0.6-0.5 0.7q0 0 0 0z"/>
									</g>
									<g id="&lt;Group&gt;" style="opacity: .7">
										<path id="&lt;Path&gt;" class="s5" d="m906.2 448.8q-0.2 0.1-0.4-0.1c-15.2-10.5-33.2-10.9-33.4-10.9-0.3 0-0.6-0.3-0.6-0.6 0-0.3 0.3-0.6 0.6-0.6 0.2 0 18.6 0.4 34.1 11.1 0.3 0.2 0.3 0.6 0.2 0.9q-0.2 0.2-0.5 0.2z"/>
									</g>
									<g id="&lt;Group&gt;" style="opacity: .7">
										<path id="&lt;Path&gt;" class="s5" d="m922.9 484.9q-0.2 0-0.4-0.2c-0.3-0.2-0.3-0.6-0.1-0.8 0.1-0.2 14.7-16.8 34.1-31.1 0.2-0.2 0.6-0.2 0.8 0.1 0.2 0.3 0.2 0.6-0.1 0.8-19.3 14.3-33.7 30.8-33.9 31q-0.2 0.1-0.4 0.2z"/>
									</g>
									<g id="&lt;Group&gt;" style="opacity: .7">
										<path id="&lt;Path&gt;" class="s5" d="m919.6 476.9q-0.1 0-0.3-0.1c-28.3-11.1-60-11.4-60.3-11.4-0.3 0-0.6-0.3-0.6-0.6 0-0.3 0.2-0.6 0.6-0.6 0.3 0 32.2 0.3 60.8 11.5 0.3 0.1 0.5 0.5 0.3 0.8-0.1 0.2-0.3 0.4-0.5 0.4z"/>
									</g>
									<g id="&lt;Group&gt;" style="opacity: .7">
										<path id="&lt;Path&gt;" class="s5" d="m941.1 540.8q-0.2 0-0.3 0c-19.5-9-52.1-10.2-52.5-10.2-0.3 0-0.6-0.3-0.5-0.6 0-0.3 0.2-0.6 0.6-0.6 0.3 0 33.2 1.2 52.9 10.3 0.3 0.1 0.4 0.5 0.3 0.8-0.1 0.2-0.3 0.3-0.5 0.3z"/>
									</g>
									<g id="&lt;Group&gt;" style="opacity: .7">
										<path id="&lt;Path&gt;" class="s5" d="m943.2 549.4q-0.1 0-0.2 0c-0.3-0.1-0.5-0.5-0.4-0.8 8.9-24.2 32.3-43.3 32.5-43.4 0.3-0.3 0.7-0.2 0.9 0 0.2 0.3 0.2 0.7-0.1 0.9-0.2 0.2-23.4 19-32.2 42.9 0 0.2-0.2 0.4-0.5 0.4z"/>
									</g>
								</g>
							</g>
							<path id="&lt;Path&gt;" class="s6" d="m1123.4 634.3c0 0-1.1-43.9 33.5-48 34.6-4 22.2 45.9 7.3 62.3 0 0 19.2-22.6 32-7.4 12.9 15.3-23.1 32.8-23.1 32.8 0 0 28.8-9.7 36.7-3.1 10.3 8.5-9.2 20.9-9.2 20.9 0 0 31.1-12.4 24.6 9.7l-147.9-0.4z"/>
							<g id="&lt;Group&gt;">
								<path id="&lt;Path&gt;" class="s7" d="m1136.7 321.5v351.3c0 16.1-13 29.2-29.2 29.2h-144c-16.2 0-29.2-13.1-29.2-29.2v-351.3c0-16.1 13-29.2 29.2-29.2h144c16.2 0 29.2 13.1 29.2 29.2z"/>
								<path id="&lt;Path&gt;" class="s8" d="m1136.7 321.5v4.8h-202.4v-4.8c0-16.1 13-29.2 29.2-29.2h144c16.2 0 29.2 13.1 29.2 29.2z"/>
								<path id="&lt;Path&gt;" class="s8" d="m1136.7 667.9v4.9c0 16.1-13 29.2-29.2 29.2h-144c-16.2 0-29.2-13.1-29.2-29.2v-4.9z"/>
								<path id="&lt;Path&gt;" class="s8" d="m1138.2 453h-1.5v-77.3h1.5c2.2 0 4.1 1.8 4.1 4.1v69.1c0 2.2-1.9 4.1-4.1 4.1z"/>
								<path id="&lt;Path&gt;" class="s8" d="m934.3 411.9h-1.4c-2.1 0-3.8-1.7-3.8-3.8v-30c0-2.1 1.7-3.8 3.8-3.8h1.4z"/>
								<path id="&lt;Path&gt;" class="s8" d="m934.3 453h-1.2c-1.8 0-3.3-1.5-3.3-3.4v-16.5c0-1.8 1.5-3.3 3.3-3.3h1.2z"/>
								<path id="&lt;Path&gt;" class="s9" d="m1006.5 309.3c0 3.2-2.6 5.8-5.8 5.8-3.2 0-5.8-2.6-5.8-5.8 0-3.2 2.6-5.7 5.8-5.7 3.2 0 5.8 2.5 5.8 5.7z"/>
								<path id="&lt;Path&gt;" class="s9" d="m1019 309.3c0 1.6-1.3 2.8-2.8 2.8-1.5 0-2.8-1.2-2.8-2.8 0-1.5 1.3-2.8 2.8-2.8 1.5 0 2.8 1.3 2.8 2.8z"/>
								<path id="&lt;Path&gt;" class="s9" d="m1076.6 312.8h-48.1c-1.5 0-2.6-1.2-2.6-2.6v-1.8c0-1.4 1.1-2.5 2.6-2.5h48.1c1.4 0 2.6 1.1 2.6 2.5v1.8c0 1.4-1.2 2.6-2.6 2.6z"/>
								<path id="&lt;Path&gt;" class="s9" d="m1046.6 684.8c0 6.1-5 11.1-11.1 11.1-6.1 0-11.1-5-11.1-11.1 0-6.2 5-11.1 11.1-11.1 6.1 0 11.1 4.9 11.1 11.1z"/>
								<path id="&lt;Path&gt;" class="s10" d="m1130.7 326.3v341.6h-192v-341.6z"/>
							</g>
							<path id="&lt;Compound Path&gt;" fill-rule="evenodd" class="s11" d="m1039.2 557.8c-22.6-7.6-103.6-146.7 0-146.7 103.7 0 21.8 141.4 0 146.7zm27.8-97.1c0-15.4-12.5-27.9-27.9-27.9-15.4 0-27.8 12.5-27.8 27.9 0 15.3 12.4 27.8 27.8 27.8 15.4 0 27.9-12.5 27.9-27.8z"/>
							<path id="&lt;Path&gt;" class="s12" d="m1083.7 570.9c0 2.1-20 3.9-44.6 3.9-24.6 0-44.5-1.8-44.5-3.9 0-2.2 19.9-3.9 44.5-3.9 24.6 0 44.6 1.7 44.6 3.9z"/>
							<g id="&lt;Group&gt;">
								<path id="&lt;Path&gt;" class="s13" d="m1083.7 570.9c0 2.1-20 3.9-44.6 3.9-24.6 0-44.5-1.8-44.5-3.9 0-2.2 19.9-3.9 44.5-3.9 24.6 0 44.6 1.7 44.6 3.9z"/>
								<path id="&lt;Path&gt;" class="s14" d="m1062.4 570.9c0 1.1-10.4 2-23.3 2-12.8 0-23.2-0.9-23.2-2 0-1.1 10.4-2.1 23.2-2.1 12.9 0 23.3 1 23.3 2.1z"/>
							</g>
							<g id="&lt;Group&gt;" style="opacity: .5">
								<path id="&lt;Path&gt;" class="s15" d="m1065.8 326.3l-127.1 194.7v-108.4l56.3-86.3z"/>
								<path id="&lt;Path&gt;" class="s15" d="m1119.2 326.3l-180.5 276.7v-50.3l147.8-226.4z"/>
								<path id="&lt;Path&gt;" class="s15" d="m1130.7 439.5v50.3l-116.4 178.4h-32.8z"/>
							</g>
							<g id="&lt;Group&gt;" style="opacity: .8">
								<g id="&lt;Group&gt;">
									<path id="&lt;Path&gt;" class="s4" d="m1293.3 432.2q-0.2 0.3-0.6 0.7-0.1 0.2-0.4 0.4c-0.8 0.8-1.9 1.9-3.1 3.1q-0.7 0.6-1.4 1.4-0.7 0.7-1.4 1.5-0.4 0.3-0.6 0.6-0.9 0.9-1.7 1.9c-1 1.3-1.6 2.4-2.2 3.4q-0.3 0.5-0.5 1c-0.4 0.9-0.8 1.8-1.1 2.5q-0.2 0.4-0.4 0.7 0 0.1 0 0.1-0.2 0.4-0.5 0.7-0.6 0.8-1.4 1.4-0.8 0.6-1.7 1-0.7 0.2-1.6 0.5c-1.1 0.3-2.5 0.7-4 0.9q-0.4 0-0.8 0c-2.4 0-4.6-1.2-6-3.1-0.4-0.6-0.8-1.2-1-1.9-1.4-4.1-6.6-9.9-13-16.7-7.7-8.1-10.1-17.5-9.8-32.1 0-5.2 2.4-9.6 5.3-13.2 3.1-3.7 7-6.6 11.4-8.5q1.9-0.9 4-1.4c3-0.9 6.1-1.4 9.2-1.4h0.1q2.9-0.1 5.5 0.2c5.5 0.6 10.1 2.4 13.9 5.3q2.4 1.9 4.3 4.3c2.3 2.8 3.9 6.3 5.6 10.1 8.1 18.2-3.3 32.9-6.1 36.6z"/>
									<path id="&lt;Path&gt;" class="s7" d="m1293.3 432.2q-0.2 0.3-0.6 0.7-0.1 0.2-0.4 0.4c-0.8 0.8-1.9 1.9-3.1 3.1q-0.7 0.6-1.4 1.4-0.7 0.7-1.4 1.5-0.3 0.3-0.6 0.6-0.9 0.9-1.7 1.9-0.2 0.3-0.5 0.6c-0.7 0.9-1.2 1.9-1.7 2.8q-0.3 0.5-0.5 1c-0.4 0.9-0.8 1.8-1.1 2.5q-0.2 0.4-0.4 0.7 0 0.1 0 0.1-0.2 0.4-0.5 0.7-0.6 0.8-1.4 1.4c0.5-5.7 3.2-10.1 4.9-12.5 1.9-2.6 8.7-10.1 10.6-15.2 2-5.1 3.7-16 3.1-23.6-0.2-3.9-1.6-9.9-2.8-14.8 2.3 2.8 3.9 6.3 5.6 10.1 8.1 18.2-3.3 32.9-6.1 36.6z"/>
									<path id="&lt;Path&gt;" class="s7" d="m1267.1 449.7l-0.3 0.1q-0.8 0.1-1.6 0.4-1 0.4-1.9 0.9c-0.4-0.6-0.2-1.4-0.4-2.1-1.4-4.1-6.6-9.9-13-16.7-7.7-8.1-17.4-30-4.5-45.3 1.3-1.5 2.7-3 4.3-4.2 2.2-1.8 4.6-3.2 7.1-4.3-1.6 3-5.5 11.3-5.8 17.6-0.4 7.9 0.9 12.8 3.2 18.4 2.3 5.7 6.7 13.3 7.7 15.4 1 2.1 3.8 9.7 4.4 13.3 0.6 3.5 0.8 6.5 0.8 6.5z"/>
									<path id="&lt;Path&gt;" class="s7" d="m1293.6 404.8c-0.2 2.2-2.5 9.7-3.1 11.3-0.5 1.6-4.6 11.4-5.1 12.6-0.4 1.1-4.4 8.2-5.2 10.1-0.9 1.9-2 4.2-2.5 5.5-0.5 1.3-1.1 6.3-1.1 6.3l-1.7-0.4-1.6-0.3 0.1-12.8c0 0-0.4-6.8-0.5-9.9-0.1-3.1 0.1-11.6 0.3-24.9 0.2-10.3-2.1-22-3.1-26.6q5.9-0.1 10.6 1.2c3.3 0.9 6.2 2.4 8.8 4.3 4.5 7.5 4.3 21.8 4.1 23.6z"/>
									<path id="&lt;Path&gt;" class="s4" d="m1293.6 404.8c-0.2 2.2-2.5 9.7-3.1 11.3-0.5 1.6-4.6 11.4-5.1 12.6-0.4 1.1-4.4 8.2-5.2 10.1-0.9 1.9-2 4.2-2.5 5.5-0.5 1.3-1.1 6.3-1.1 6.3l-1.7-0.4c0.4-4.2 1.9-12.9 3-14.9 1.3-2.4 4.4-9.8 8.3-24.4 3.9-14.9-1.7-30.1-5.5-34 3.3 0.9 6.2 2.4 8.8 4.3 4.5 7.5 4.3 21.8 4.1 23.6z"/>
									<g id="&lt;Group&gt;">
										<g id="&lt;Group&gt;">
											<path id="&lt;Path&gt;" class="s16" d="m1240.5 410.9c1.7-1.3 3.2-2.8 5-4 1.9-1.1 3.7-2.2 5.7-3 4-1.6 8.3-2.8 12.6-3.4 8.6-1.2 17.3 0.3 25.6 2.8 2.2 0.7 4.3 1.6 6.3 2.8 1.9 1.1 4 2.2 5.5 3.9 0.1 0.1 0.4-0.1 0.3-0.3-1.3-1.4-2.9-2.3-4.5-3.3-1.7-1.1-3.4-2.1-5.3-2.7-4.2-1.6-8.8-2.7-13.2-3.4-9-1.3-17.8-0.4-26.2 2.8-2.2 0.9-4.3 1.9-6.3 3.1-2.1 1.3-3.8 3-5.7 4.5-0.2 0.2 0 0.4 0.2 0.2z"/>
										</g>
										<g id="&lt;Group&gt;">
											<path id="&lt;Path&gt;" class="s16" d="m1241 413.6c2.7-2.8 6.2-4.6 9.6-6.3 3.9-1.9 8-3.5 12.3-4.3 8.4-1.4 17.2-0.1 25.2 2.8 2.2 0.7 4.4 1.6 6.5 2.7 1.2 0.5 2.2 1.2 3.3 1.8 1 0.6 2.1 1 3 1.6 0.2 0.2 0.5-0.1 0.3-0.2-0.9-0.6-1.8-1-2.7-1.5-1-0.5-2-1.1-3-1.7-1.8-1-3.8-1.8-5.8-2.5-4.1-1.6-8.3-2.7-12.6-3.4-4.3-0.6-8.8-0.7-13.1-0.1-4.1 0.6-8.1 2-11.9 3.7-4.1 1.9-8.3 3.9-11.4 7.2-0.2 0.2 0.1 0.4 0.3 0.2z"/>
										</g>
										<g id="&lt;Group&gt;">
											<path id="&lt;Path&gt;" class="s16" d="m1259.8 443.7c3.7-1.9 7.6-2.7 11.7-2.8 3.9-0.2 8.2 0.1 11.6 2.2 0.2 0.1 0.5-0.2 0.3-0.3-3.4-2.1-7.9-2.4-11.8-2.3-4.2 0.2-8.1 1-11.9 2.9-0.2 0.1-0.1 0.4 0.1 0.3z"/>
										</g>
										<g id="&lt;Group&gt;">
											<path id="&lt;Path&gt;" class="s16" d="m1258.8 442.5q5.7-3.3 12.4-3.4 3.3 0 6.5 0.7c1.2 0.2 2.4 0.6 3.6 0.8 1.1 0.3 2.1 0.5 3 1 0.2 0 0.4-0.3 0.2-0.4-1.1-0.5-2.2-0.7-3.3-1-1.1-0.2-2.2-0.5-3.2-0.7-2.4-0.5-4.8-0.8-7.1-0.7-4.4 0.1-8.5 1.2-12.3 3.4-0.2 0.2 0 0.4 0.2 0.3z"/>
										</g>
										<g id="&lt;Group&gt;">
											<path id="&lt;Path&gt;" class="s16" d="m1263.1 451.2c0 3.7 1.1 7.3 1.1 11 0 0.2 0.3 0.1 0.3-0.1 0-3.7-1-7.3-1-11 0-0.2-0.4 0-0.4 0.1z"/>
										</g>
										<g id="&lt;Group&gt;">
											<path id="&lt;Path&gt;" class="s16" d="m1267.3 453c0 2.9 0.6 5.7 0.6 8.6 0.1 0.2 0.5 0.2 0.4 0 0-2.9-0.6-5.8-0.6-8.6 0-0.3-0.4-0.2-0.4 0z"/>
										</g>
										<g id="&lt;Group&gt;">
											<path id="&lt;Path&gt;" class="s16" d="m1272.3 453.4c0 2.7-0.2 5.4-0.3 8.1 0 0.2 0.4 0.2 0.4-0.1 0.1-2.6 0.3-5.3 0.3-8 0-0.3-0.4-0.2-0.4 0z"/>
										</g>
										<g id="&lt;Group&gt;">
											<path id="&lt;Path&gt;" class="s16" d="m1278 451.5c0 1.9-0.3 3.8-0.7 5.7-0.3 1.7-0.7 3.4-0.8 5.2 0 0.2 0.4 0.1 0.4-0.1 0-2 0.6-3.9 0.9-5.9 0.3-1.7 0.6-3.3 0.6-5 0-0.3-0.4-0.1-0.4 0.1z"/>
										</g>
										<g id="&lt;Group&gt;">
											<path id="&lt;Path&gt;" class="s16" d="m1251.5 406.6c0.2 1.2 0.4 2.3 0.7 3.4 0.3 1.3 0.9 2.5 1.5 3.7 1.2 2.9 2.2 6 3.7 8.8 1.5 2.7 3.2 5.2 4.6 8 0.7 1.5 1.3 3 1.8 4.5 0.6 1.5 0.8 3.2 1.4 4.7 0.1 0.1 0.5 0 0.4-0.2-0.6-1.3-0.8-2.8-1.3-4.2-0.5-1.6-1.1-3.1-1.8-4.6-1.3-2.8-3-5.3-4.5-8-1.6-2.8-2.6-5.8-3.8-8.8-0.6-1.3-1.3-2.6-1.6-4-0.3-1.1-0.5-2.2-0.7-3.3 0-0.2-0.5-0.2-0.4 0z"/>
										</g>
										<g id="&lt;Group&gt;">
											<path id="&lt;Path&gt;" class="s16" d="m1273 402.1c-0.1 6.4-0.2 12.8-0.4 19.2-0.2 5.9 0.6 11.8 0.6 17.7 0 0.2 0.4 0.2 0.4 0 0.1-5.9-0.8-11.8-0.6-17.7 0.2-6.4 0.3-12.8 0.4-19.2 0-0.3-0.4-0.2-0.4 0z"/>
										</g>
										<g id="&lt;Group&gt;">
											<path id="&lt;Path&gt;" class="s16" d="m1292.7 407.8c-0.1 0.7-0.4 1.4-0.6 2.1-0.3 0.7-0.5 1.4-0.7 2.1-0.4 1.4-0.7 2.7-1.2 4.1-0.9 2.8-2 5.5-3 8.3-1.1 2.8-2.7 5.3-4 8-1.2 2.5-2.4 5-3.9 7.3-0.2 0.2 0.2 0.3 0.3 0.1 1.6-2.3 2.8-4.8 4-7.4 1.3-2.6 2.9-5.2 3.9-8 1.1-2.8 2.2-5.6 3.2-8.4 0.4-1.5 0.9-3 1.3-4.5 0.3-1.2 1-2.5 1.1-3.8 0-0.2-0.4-0.2-0.4 0.1z"/>
										</g>
										<g id="&lt;Group&gt;">
											<path id="&lt;Path&gt;" class="s16" d="m1265.7 441.5c0.1 0.7 0.3 1.3 0.4 2 0.2 0.8 0.3 1.6 0.5 2.5 0.2 1.4 0.3 2.9 0.3 4.4 0 0.2 0.4 0.2 0.4 0 0-1.3-0.1-2.7-0.2-4-0.1-0.8-0.3-1.6-0.5-2.4-0.1-0.8-0.4-1.7-0.5-2.5 0-0.3-0.4-0.2-0.4 0z"/>
										</g>
										<g id="&lt;Group&gt;">
											<path id="&lt;Path&gt;" class="s16" d="m1273.1 440.9c0 1.9 0 3.8 0 5.7q0 1 0 2c0 0.2 0.1 1.3-0.1 1.5-0.2 0.2 0.2 0.3 0.3 0.2 0.2-0.2 0.2-0.8 0.2-1q0-1.1 0-2.2c0-2.1 0-4.1 0-6.2 0-0.2-0.4-0.2-0.4 0z"/>
										</g>
										<g id="&lt;Group&gt;">
											<path id="&lt;Path&gt;" class="s16" d="m1279.1 441.3c-2.2 2.6-2.2 6.3-2.8 9.5 0 0.2 0.4 0.3 0.4 0 0.6-3.1 0.5-6.8 2.7-9.3 0.2-0.2-0.2-0.4-0.3-0.2z"/>
										</g>
									</g>
									<path id="&lt;Path&gt;" class="s17" d="m1278.3 451.6c0 0-1.4 2.9-7.9 2.7-6.2-0.2-7.1-3.1-7.1-3.1 0 0 0.4-1.8 6.8-1.6 8 0.3 8.2 2 8.2 2z"/>
								</g>
								<g id="&lt;Group&gt;">
									<g id="&lt;Group&gt;">
										<path id="&lt;Path&gt;" class="s18" d="m1258.7 462l-0.1 24.9 25.5 0.1v-25z"/>
										<path id="&lt;Path&gt;" class="s19" d="m1258.7 462l-0.1 4.5h25.5v-4.5z"/>
										<path id="&lt;Path&gt;" class="s18" d="m1258.4 466h26.3v-4.5h-26.3z"/>
										<path id="&lt;Path&gt;" class="s20" d="m1269.3 461.5v7.5l0.5-0.7 0.5 0.7 0.4-0.7 0.5 0.7 0.5-0.7 0.5 0.7 0.4-0.7 0.5 0.7v-7.5z"/>
									</g>
								</g>
							</g>
							<g id="&lt;Group&gt;" style="opacity: .5;mix-blend-mode: multiply">
								<path id="&lt;Path&gt;" class="s14" d="m1118.8 743.3c0 1.7 16.5 3.1 36.8 3.1 20.3 0 36.8-1.4 36.8-3.1 0-1.7-16.5-3.1-36.8-3.1-20.3 0-36.8 1.4-36.8 3.1z"/>
							</g>
							<g id="&lt;Group&gt;" style="opacity: .5;mix-blend-mode: multiply">
								<path id="&lt;Path&gt;" class="s14" d="m777.7 781.7c0 1.7 16.5 3.1 36.8 3.1 20.4 0 36.9-1.4 36.9-3.1 0-1.7-16.5-3-36.9-3-20.3 0-36.8 1.3-36.8 3z"/>
							</g>
							<g id="&lt;Group&gt;">
								<g id="&lt;Group&gt;">
									<g id="&lt;Group&gt;">
										<path id="&lt;Path&gt;" class="s19" d="m971.7 667.4v35.8h-36.5v-35.7z"/>
										<path id="&lt;Path&gt;" class="s19" d="m971.7 667.4v6.5h-36.5v-6.4z"/>
										<path id="&lt;Path&gt;" class="s19" d="m972 673.1l-37.7 0.1-0.1-6.5h37.8z"/>
										<path id="&lt;Path&gt;" class="s19" d="m956.3 666.7l0.1 10.8-0.7-1-0.7 1-0.7-1-0.7 1-0.7-1-0.6 1-0.7-1-0.7 1v-10.8z"/>
									</g>
									<g id="&lt;Group&gt;">
										<path id="&lt;Path&gt;" class="s21" d="m973.9 667.4v35.8h-36.5v-35.7z"/>
										<path id="&lt;Path&gt;" class="s19" d="m973.9 667.4v6.5h-36.5v-6.4z"/>
										<path id="&lt;Path&gt;" class="s21" d="m974.2 673.1l-37.7 0.1v-6.5h37.7z"/>
										<path id="&lt;Path&gt;" class="s20" d="m958.6 666.7v10.8l-0.7-1.1-0.7 1.1-0.7-1-0.7 1-0.6-1-0.7 1-0.7-1-0.7 1v-10.8z"/>
									</g>
								</g>
								<g id="&lt;Group&gt;">
									<g id="&lt;Group&gt;">
										<path id="&lt;Path&gt;" class="s19" d="m952 630.6v35.8h-36.5v-35.8z"/>
										<path id="&lt;Path&gt;" class="s19" d="m952 630.6v6.4l-36.5 0.1v-6.5z"/>
										<path id="&lt;Path&gt;" class="s19" d="m952.3 636.3l-37.7 0.1v-6.5l37.7-0.1z"/>
										<path id="&lt;Path&gt;" class="s19" d="m936.7 629.9v10.8l-0.7-1.1-0.7 1.1-0.7-1.1-0.6 1.1-0.7-1.1-0.7 1.1-0.7-1.1-0.7 1.1v-10.8z"/>
									</g>
									<g id="&lt;Group&gt;">
										<path id="&lt;Path&gt;" class="s22" d="m954.2 630.6v35.8h-36.5v-35.8z"/>
										<path id="&lt;Path&gt;" class="s19" d="m954.2 630.6v6.4l-36.5 0.1v-6.5z"/>
										<path id="&lt;Path&gt;" class="s22" d="m954.5 636.3l-37.7 0.1v-6.5l37.7-0.1z"/>
										<path id="&lt;Path&gt;" class="s20" d="m938.9 629.9v10.8l-0.7-1.1-0.7 1.1-0.7-1.1-0.6 1.1-0.7-1.1-0.7 1.1-0.7-1.1-0.7 1.1v-10.8z"/>
									</g>
								</g>
								<path id="&lt;Path&gt;" class="s8" d="m1061.8 742.1l-144-35.4-16.2-10.6 183.3 45.6z"/>
								<path id="&lt;Path&gt;" class="s7" d="m956.9 704.3h-165.7v-143.6h165.7z"/>
								<g id="&lt;Group&gt;">
									<path id="&lt;Path&gt;" class="s8" d="m662.4 670.3c2.8 5.5 0.6 12.3-4.9 15.1-5.6 2.8-12.3 0.7-15.2-4.9-2.8-5.5-0.6-12.3 4.9-15.1 5.6-2.8 12.3-0.6 15.2 4.9z"/>
								</g>
								<path id="&lt;Path&gt;" class="s7" d="m781.6 581.2v1.6 2.3l-0.5 52.3v0.2l-62 0.3-38.2 0.2 0.1-0.2 0.2-0.3 0.2-0.2 37.7-52.8c0.9-1.3 2.4-2.2 4-2.4l52.2-6.1c3.2-0.4 6 1.9 6.3 5.1z"/>
								<g id="&lt;Group&gt;">
									<path id="&lt;Path&gt;" class="s23" d="m781.6 582.8v2.3c-0.1-1.3-0.9-2.9-1.9-3.8-1-0.8-2.3-1.2-3.6-1.1l-50.6 6.1c-1.8 0.2-3.4 1.1-4.5 2.6l-34.5 48.6-0.9-0.1 34.9-48.9c1.1-1.7 2.9-2.7 4.9-3l50.6-6c1.6-0.2 3.1 0.3 4.2 1.3q1 0.8 1.4 2z"/>
								</g>
								<path id="&lt;Path&gt;" class="s24" d="m774.2 589.2v48.1l-19.8-0.1h-7.4-10.8l-11.7-0.1h-21.3-3.6v-5.8c0-1.7 0.5-3.4 1.4-4.8l22.8-33.7c1.3-1.9 3.4-3.2 5.7-3.5l7.6-0.9 23.3-2.7 8.7-1.1c1.2-0.1 2.3 0.2 3.2 0.9 1.2 0.8 1.9 2.2 1.9 3.7z"/>
								<path id="&lt;Path&gt;" class="s7" d="m781.6 637.4v77.3h-94.4c-9.2 0-36.2-0.6-36.2-0.6v-39.1c0-18.5 12.3-33.8 28.6-37.1q0.8-0.2 1.5-0.3 0.1 0 0.1 0c1.6-0.2 3.2-0.2 4.8-0.2z"/>
								<path id="&lt;Path&gt;" class="s8" d="m768.7 647.9h-11.4c-1.7 0-3-1.3-3-3 0-1.6 1.3-2.9 3-2.9h11.4c1.7 0 3 1.3 3 2.9 0 1.7-1.3 3-3 3z"/>
								<path id="&lt;Path&gt;" class="s25" d="m771.7 644.9c0 0.9-0.3 1.6-0.9 2.2-0.5 0.5-1.3 0.8-2.1 0.8h-11.4c-1.7 0-3-1.3-3-3q0-0.5 0.2-1c0.4 1.2 1.5 2 2.8 2h11.4c0.8 0 1.6-0.4 2.1-0.9q0.5-0.5 0.7-1.1 0.2 0.5 0.2 1z"/>
								<path id="&lt;Path&gt;" class="s26" d="m760.4 585.7l-35.9 51.4h-21.3l33.9-48.7z"/>
								<path id="&lt;Path&gt;" class="s26" d="m774.2 589.2v8.9l-27.2 39.1h-10.8l36.1-51.7c1.2 0.8 1.9 2.2 1.9 3.7z"/>
								<path id="&lt;Path&gt;" class="s26" d="m774.2 608.8v28.5l-19.8-0.1z"/>
								<path id="&lt;Path&gt;" class="s27" d="m653.8 711.6h-5.6c-4.9 0-8.8-3.9-8.8-8.8 0-4.8 3.9-8.7 8.8-8.7h5.6c4.8 0 8.8 3.9 8.8 8.7 0 4.9-4 8.8-8.8 8.8z"/>
								<path id="&lt;Path&gt;" class="s28" d="m876.4 702.8l4.8-6.7c5.3-7.3 13.6-11.5 22.6-11.5 8.8 0 17.1 4.1 22.3 11.2l5.2 7"/>
								<path id="&lt;Path&gt;" class="s8" d="m958.2 714.7h-305.1c-3.2 0-5.7-2.5-5.7-5.6v-0.6c0-3.1 2.5-5.7 5.7-5.7h305.1c3.1 0 5.6 2.6 5.6 5.7v0.6c0 3.1-2.5 5.6-5.6 5.6z"/>
								<path id="&lt;Path&gt;" class="s8" d="m699 702.8l4.8-6.7c5.3-7.3 13.6-11.5 22.6-11.5 8.8 0 17.1 4.1 22.3 11.2l5.2 7"/>
								<g id="&lt;Group&gt;">
									<path id="&lt;Path&gt;" class="s7" d="m752 716.1c0 14.1-11.4 25.6-25.6 25.6-14.1 0-25.6-11.5-25.6-25.6 0-14.1 11.5-25.6 25.6-25.6 14.2 0 25.6 11.5 25.6 25.6z"/>
									<path id="&lt;Path&gt;" class="s29" d="m745.9 716.1c0 10.7-8.7 19.4-19.5 19.4-10.7 0-19.4-8.7-19.4-19.4 0-10.7 8.7-19.4 19.4-19.4 10.8 0 19.5 8.7 19.5 19.4z"/>
									<path id="&lt;Path&gt;" class="s7" d="m740.5 716.1c0 7.8-6.3 14.1-14.1 14.1-7.8 0-14.1-6.3-14.1-14.1 0-7.8 6.3-14.1 14.1-14.1 7.8 0 14.1 6.3 14.1 14.1z"/>
									<path id="&lt;Path&gt;" class="s30" d="m739.4 716.1c0 7.1-5.8 12.9-13 12.9-7.1 0-12.9-5.8-12.9-12.9 0-7.1 5.8-12.9 12.9-12.9 7.2 0 13 5.8 13 12.9z"/>
									<path id="&lt;Path&gt;" class="s27" d="m734.5 716.1c0 4.4-3.6 8-8.1 8-4.4 0-8-3.6-8-8 0-4.4 3.6-8 8-8 4.5 0 8.1 3.6 8.1 8z"/>
									<path id="&lt;Path&gt;" class="s7" d="m729 716.1c0 1.4-1.1 2.6-2.6 2.6-1.4 0-2.6-1.2-2.6-2.6 0-1.4 1.2-2.6 2.6-2.6 1.5 0 2.6 1.2 2.6 2.6z"/>
									<path id="&lt;Path&gt;" class="s31" d="m729.7 716.1c0 1.8-1.5 3.3-3.3 3.3-1.8 0-3.3-1.5-3.3-3.3 0-1.8 1.5-3.3 3.3-3.3 1.8 0 3.3 1.5 3.3 3.3z"/>
								</g>
								<g id="&lt;Group&gt;">
									<path id="&lt;Path&gt;" class="s32" d="m929.4 716.1c0 14.1-11.4 25.6-25.6 25.6-14.1 0-25.6-11.5-25.6-25.6 0-14.1 11.5-25.6 25.6-25.6 14.2 0 25.6 11.5 25.6 25.6z"/>
									<path id="&lt;Path&gt;" class="s29" d="m923.3 716.1c0 10.7-8.7 19.4-19.5 19.4-10.7 0-19.4-8.7-19.4-19.4 0-10.7 8.7-19.4 19.4-19.4 10.8 0 19.5 8.7 19.5 19.4z"/>
									<path id="&lt;Path&gt;" class="s28" d="m917.9 716.1c0 7.8-6.3 14.1-14.1 14.1-7.8 0-14.1-6.3-14.1-14.1 0-7.8 6.3-14.1 14.1-14.1 7.8 0 14.1 6.3 14.1 14.1z"/>
									<path id="&lt;Path&gt;" class="s30" d="m916.8 716.1c0 7.1-5.8 12.9-13 12.9-7.1 0-12.9-5.8-12.9-12.9 0-7.1 5.8-12.9 12.9-12.9 7.2 0 13 5.8 13 12.9z"/>
									<path id="&lt;Path&gt;" class="s33" d="m911.9 716.1c0 4.4-3.6 8-8.1 8-4.4 0-8-3.6-8-8 0-4.4 3.6-8 8-8 4.5 0 8.1 3.6 8.1 8z"/>
									<path id="&lt;Path&gt;" class="s34" d="m898 717.6q-0.1-0.7-0.1-1.5 0-1.2 0.4-2.2"/>
									<path id="&lt;Path&gt;" class="s34" d="m902.6 721.9c-1.4-0.2-2.6-1.1-3.5-2.2"/>
									<path id="&lt;Path&gt;" class="s34" d="m907.8 720.6c-0.8 0.7-1.8 1.1-2.8 1.3"/>
									<path id="&lt;Path&gt;" class="s34" d="m909.8 716.1c0 1.1-0.3 2.1-0.8 3"/>
									<path id="&lt;Path&gt;" class="s28" d="m906.4 716.1c0 1.4-1.1 2.6-2.6 2.6-1.4 0-2.6-1.2-2.6-2.6 0-1.4 1.2-2.6 2.6-2.6 1.5 0 2.6 1.2 2.6 2.6z"/>
									<path id="&lt;Path&gt;" class="s31" d="m907.1 716.1c0 1.8-1.5 3.3-3.3 3.3-1.8 0-3.3-1.5-3.3-3.3 0-1.8 1.5-3.3 3.3-3.3 1.8 0 3.3 1.5 3.3 3.3z"/>
								</g>
								<g id="&lt;Group&gt;">
									<g id="&lt;Group&gt;">
										<path id="&lt;Path&gt;" class="s21" d="m1058.5 623.8l-12.8 52-53.1-13.1 12.8-52z"/>
										<path id="&lt;Path&gt;" class="s19" d="m1058.5 623.8l-2.3 9.4-53.1-13.1 2.3-9.4z"/>
										<path id="&lt;Path&gt;" class="s21" d="m1056.9 632.3l-54.9-13.6 2.4-9.4 54.8 13.6z"/>
										<path id="&lt;Path&gt;" class="s20" d="m1036.5 617.3l-3.9 15.6-0.6-1.7-1.4 1.2-0.6-1.7-1.4 1.3-0.6-1.8-1.3 1.3-0.7-1.8-1.3 1.3 3.9-15.7z"/>
									</g>
									<g id="&lt;Group&gt;">
										<path id="&lt;Path&gt;" class="s21" d="m1042.4 676l-12.8 52-53.1-13.1 12.9-52z"/>
										<path id="&lt;Path&gt;" class="s19" d="m1042.4 676l-2.3 9.4-53.1-13.1 2.4-9.4z"/>
										<path id="&lt;Path&gt;" class="s21" d="m1040.8 684.4l-54.8-13.5 2.3-9.4 54.8 13.5z"/>
										<path id="&lt;Path&gt;" class="s18" d="m1020.4 669.4l-3.9 15.7-0.6-1.7-1.3 1.2-0.7-1.7-1.3 1.2-0.6-1.7-1.4 1.3-0.6-1.8-1.4 1.3 3.9-15.7z"/>
									</g>
									<g id="&lt;Group&gt;">
										<g id="&lt;Group&gt;">
											<path id="&lt;Path&gt;" class="s19" d="m1086.1 686.8l-12.9 52-53-13.1 12.8-52z"/>
											<path id="&lt;Path&gt;" class="s19" d="m1086.1 686.8l-2.3 9.4-53.1-13.1 2.3-9.4z"/>
											<path id="&lt;Path&gt;" class="s19" d="m1084.5 695.2l-54.9-13.5 2.3-9.4 54.9 13.5z"/>
											<path id="&lt;Path&gt;" class="s19" d="m1064.1 680.2l-3.9 15.7-0.6-1.8-1.4 1.3-0.6-1.7-1.4 1.2-0.6-1.7-1.4 1.2-0.6-1.7-1.3 1.2 3.8-15.6z"/>
										</g>
										<g id="&lt;Group&gt;">
											<path id="&lt;Path&gt;" class="s18" d="m1089.3 687.6l-12.8 52-53.1-13.1 12.8-52z"/>
											<path id="&lt;Path&gt;" class="s19" d="m1089.3 687.6l-2.3 9.4-53.1-13.1 2.3-9.4z"/>
											<path id="&lt;Path&gt;" class="s18" d="m1087.7 696l-54.9-13.5 2.4-9.4 54.8 13.5z"/>
											<path id="&lt;Path&gt;" class="s20" d="m1067.3 681l-3.9 15.7-0.6-1.8-1.4 1.3-0.6-1.8-1.4 1.3-0.6-1.7-1.3 1.2-0.7-1.7-1.3 1.2 3.9-15.7z"/>
										</g>
									</g>
								</g>
								<g id="&lt;Group&gt;" style="opacity: .2;mix-blend-mode: screen">
									<path id="&lt;Path&gt;" class="s35" d="m824.6 684.9h-6.5c-2 0-3.6-1.6-3.6-3.6v-97.6c0-2 1.6-3.6 3.6-3.6h6.5c2 0 3.6 1.6 3.6 3.6v97.6c0 2-1.6 3.6-3.6 3.6z"/>
									<path id="&lt;Path&gt;" class="s35" d="m850.9 684.9h-6.4c-2 0-3.6-1.6-3.6-3.6v-97.6c0-2 1.6-3.6 3.6-3.6h6.4c2 0 3.6 1.6 3.6 3.6v97.6c0 2-1.6 3.6-3.6 3.6z"/>
									<path id="&lt;Path&gt;" class="s35" d="m877.3 684.9h-6.5c-2 0-3.6-1.6-3.6-3.6v-97.6c0-2 1.6-3.6 3.6-3.6h6.5c2 0 3.6 1.6 3.6 3.6v97.6c0 2-1.6 3.6-3.6 3.6z"/>
									<path id="&lt;Path&gt;" class="s35" d="m903.6 684.9h-6.4c-2 0-3.6-1.6-3.6-3.6v-97.6c0-2 1.6-3.6 3.6-3.6h6.4c2 0 3.6 1.6 3.6 3.6v97.6c0 2-1.6 3.6-3.6 3.6z"/>
									<path id="&lt;Path&gt;" class="s35" d="m930 684.9h-6.5c-2 0-3.6-1.6-3.6-3.6v-97.6c0-2 1.6-3.6 3.6-3.6h6.5c2 0 3.6 1.6 3.6 3.6v97.6c0 2-1.6 3.6-3.6 3.6z"/>
								</g>
								<g id="&lt;Group&gt;">
									<g id="&lt;Group&gt;">
										<g id="&lt;Group&gt;">
											<path id="&lt;Path&gt;" class="s19" d="m905.9 659.3l0.1 24.3-1.3-2.3-1.2 2.3-1.3-2.3-1.2 2.3-1.3-2.3-1.2 2.3-1.3-2.3-1.2 2.4v-24.4z"/>
										</g>
										<g id="&lt;Group&gt;">
											<path id="&lt;Path&gt;" class="s21" d="m938 660.9l0.1 80.7-66.8 0.1-0.1-80.7z"/>
											<path id="&lt;Path&gt;" class="s19" d="m938 660.9v14.6l-66.7 0.1-0.1-14.6z"/>
											<path id="&lt;Path&gt;" class="s21" d="m938.6 673.8l-69 0.1v-14.6l69-0.1z"/>
											<path id="&lt;Path&gt;" class="s18" d="m910 659.3v24.3l-1.2-2.3-1.3 2.3-1.2-2.3-1.3 2.3-1.2-2.3-1.3 2.3-1.2-2.3-1.2 2.3-0.1-24.3z"/>
										</g>
									</g>
									<g id="&lt;Group&gt;">
										<g id="&lt;Group&gt;">
											<path id="&lt;Path&gt;" class="s19" d="m833.5 693.7l-0.1 47.6h48.6l0.1-47.6z"/>
											<path id="&lt;Path&gt;" class="s19" d="m833.5 693.7v8.6h48.6v-8.6z"/>
											<path id="&lt;Path&gt;" class="s19" d="m833.1 701.3h50.2v-8.6h-50.2z"/>
											<path id="&lt;Path&gt;" class="s19" d="m853.9 692.7v14.4l0.9-1.4 0.9 1.4 0.9-1.4 0.9 1.4 0.9-1.4 0.9 1.4 0.9-1.4 0.9 1.4 0.1-14.4z"/>
										</g>
										<g id="&lt;Group&gt;">
											<path id="&lt;Path&gt;" class="s18" d="m830.5 693.6v47.7h48.6v-47.6z"/>
											<path id="&lt;Path&gt;" class="s19" d="m830.5 693.6v8.7h48.6v-8.6z"/>
											<path id="&lt;Path&gt;" class="s18" d="m830.1 701.3h50.2l0.1-8.6h-50.2z"/>
											<path id="&lt;Path&gt;" class="s20" d="m850.9 692.7v14.4l0.9-1.4 0.9 1.4 1-1.4 0.9 1.4 0.9-1.4 0.9 1.4 0.9-1.4 0.9 1.4v-14.4z"/>
										</g>
									</g>
								</g>
								<g id="&lt;Group&gt;">
									<path id="&lt;Path&gt;" class="s23" d="m781.6 637.4v0.5h-102q0.8-0.2 1.5-0.3 0.1 0 0.1 0l0.2-0.2z"/>
								</g>
								<g id="&lt;Group&gt;" style="opacity: .5;mix-blend-mode: multiply">
									<path id="&lt;Path&gt;" class="s36" d="m708.5 628.1v12.2c0 1.5-2 2.1-2.8 0.8l-2.1-3.3c-1.6-2.6-1.5-5.9 0.3-8.4l1.6-2.2c1-1.3 3-0.6 3 0.9z"/>
									<g id="&lt;Group&gt;" style="opacity: .3">
										<path id="&lt;Path&gt;" class="s37" d="m697.9 643.4h-5.1c-1.7 0-3.1-1.4-3.1-3.1 0-1.7 1.4-3.1 3.1-3.1h5.1c1.7 0 3.1 1.4 3.1 3.1 0 1.7-1.4 3.1-3.1 3.1z"/>
										<g id="&lt;Group&gt;">
											<g id="&lt;Group&gt;">
												<path id="&lt;Path&gt;" class="s37" d="m699 639.8l-1.6-2.5 8.8-5.6 1.6 2.5z"/>
											</g>
											<path id="&lt;Path&gt;" class="s38" d="m700.8 641.3q-0.2 0.7-0.8 1.2c-0.5 0.6-1.3 0.9-2.1 0.9h-5.1c-1.7 0-3.1-1.4-3.1-3.1 0-0.8 0.4-1.6 0.9-2.2q0.3-0.2 0.6-0.4-0.2 0.4-0.2 0.9c0 1.7 1.4 3.1 3.1 3.1h5.1c0.6 0 1.1-0.1 1.6-0.4z"/>
										</g>
									</g>
								</g>
								<g id="&lt;Group&gt;">
									<g id="&lt;Group&gt;">
										<path id="&lt;Path&gt;" class="s39" d="m699.9 639.8l-1.6-2.5 8.8-5.6 1.6 2.5z"/>
									</g>
									<path id="&lt;Path&gt;" class="s39" d="m709.4 628.1v12.2c0 1.5-2 2.1-2.8 0.8l-2-3.3c-1.7-2.6-1.6-5.9 0.2-8.4l1.7-2.2c0.9-1.3 2.9-0.6 2.9 0.9z"/>
									<path id="&lt;Path&gt;" class="s23" d="m709.4 640.6c-0.3 1.3-2 1.7-2.8 0.5l-2-3.3c-1.7-2.6-1.6-5.9 0.2-8.4l1.7-2.2c0.2-0.4 0.6-0.6 1-0.7l-1.2 1.7c-1.8 2.5-1.9 5.8-0.3 8.4l2.1 3.3c0.3 0.5 0.8 0.7 1.3 0.7z"/>
									<path id="&lt;Path&gt;" class="s39" d="m698.8 643.4h-5.1c-1.7 0-3.1-1.4-3.1-3.1 0-1.7 1.4-3.1 3.1-3.1h5.1c1.7 0 3.1 1.4 3.1 3.1 0 1.7-1.4 3.1-3.1 3.1z"/>
									<path id="&lt;Path&gt;" class="s23" d="m701.7 641.3q-0.2 0.7-0.7 1.2c-0.6 0.6-1.4 0.9-2.2 0.9h-5.1c-1.7 0-3.1-1.4-3.1-3.1 0-0.8 0.4-1.6 1-2.2q0.2-0.2 0.5-0.4-0.1 0.4-0.1 0.9c0 1.7 1.3 3.1 3.1 3.1h5c0.6 0 1.2-0.1 1.6-0.4z"/>
								</g>
							</g>
							<g id="&lt;Group&gt;">
								<g id="&lt;Group&gt;">
									<path id="&lt;Path&gt;" class="s40" d="m1154.9 607.8c-2.3 4.5-2.8 14-5.1 18.5-1.2 2.1-10.3 14.6-17 20.6-0.8-2.2-5.4 0.4-4-1.6 4.2-6 12.4-13.1 13.5-22.7 0.7-6.3 5.4-21 5.4-21"/>
								</g>
								<g id="&lt;Group&gt;">
									<g id="&lt;Group&gt;">
										<path id="&lt;Path&gt;" class="s41" d="m1175.3 745.1c3-0.2 6-1.8 7.3-2 1-0.1 3.9-0.8 4.7-1 0.8-0.3-0.6-5.1-1.9-5.3 0 0-0.2 0.2-0.6 0.4-0.7 0.4-1.8 0.8-3.4 0.7-1.8 1.8-1.8 2.3-4 3.6-1 0.6-2 1.4-2.7 2.1-0.9 0.9-1 1.7 0.6 1.5z"/>
									</g>
									<path id="&lt;Path&gt;" class="s42" d="m1184.7 734.6c0 0 0.5 2.1 0.9 2.5-2.3 2.6-4.2 1.2-4.2 1.2v-0.4l-0.6-2.5z"/>
								</g>
								<g id="&lt;Group&gt;">
									<g id="&lt;Group&gt;">
										<path id="&lt;Path&gt;" class="s41" d="m1133.1 743.9c2.9 0.7 6.2 0.1 7.5 0.4 1 0.2 4 0.4 4.9 0.5 0.8 0 1-5.1-0.2-5.6 0 0-0.3 0.1-0.8 0.2-0.7 0.1-1.9 0.2-3.4-0.4-2.2 1.1-2.3 1.6-4.9 2.1-1.1 0.3-2.4 0.7-3.2 1.2-1.1 0.6-1.5 1.2 0.1 1.6z"/>
									</g>
									<path id="&lt;Path&gt;" class="s42" d="m1145.3 736.9c0 0-0.2 2.1 0.1 2.6-3 1.7-4.4-0.2-4.4-0.2l0.1-0.3 0.3-2.6z"/>
								</g>
								<g id="&lt;Group&gt;">
									<path id="&lt;Path&gt;" class="s41" d="m1171.6 657.7c0 0 6.2-12.6-2.6-22.5 0 0-8.2 3-14.7 3.1-5.1 0-7.6-0.7-7.6-0.7 0 0-1.7 9.3-2 24.1z"/>
									<path id="&lt;Path&gt;" class="s41" d="m1152.1 700.7q0 0 0 0c0 12.7-4.3 28.9-5.9 38q-0.2 0-0.5 0c-3.3-0.2-5.2-0.7-5.2-0.7l0.1-1c1.1-14.7 0.8-39 1-46.6q0-0.8 0.1-1.5c0.9-5.5 6.7-4.4 8.8 0.9q0.5 1.3 0.8 2.7 0.2 0.6 0.3 1.3 0.3 2 0.5 4.1v0.2q0 0.6 0 1.2v0.1q0 0.7 0 1.3z"/>
									<path id="&lt;Path&gt;" class="s41" d="m1161 663q0 0.2-0.1 0.5c-1.4 5.3-5.1 18.1-7.7 25.8v0.1q0 0 0 0c-0.6 1.8-1.2 3.3-1.6 4.4-0.2 0.5-0.8 1-1.5 1.3q-0.6 0.3-1.2 0.4c-2.9 0.6-7.2-0.8-7.2-6.6q0-1 0.2-2.1c0.6-4.6 3.3-30.6 3.7-33 0.3-2.5 1-6.2 2.4-6.6 6.7-1.8 15.4 6.5 13 15.8z"/>
									<path id="&lt;Path&gt;" class="s41" d="m1151.9 691.6l1.3-2.2q0 0 0 0c-0.2 0.5-1.2 4.4-1.1 8.5v0.2q0 0.6 0 1.2v0.1q0.1 1 0 1.3 0 0 0 0c-0.2 1.1-1.7-4.3-2-5.6q-0.1-0.2-0.1-0.2l1.3-2.4z"/>
									<path id="&lt;Path&gt;" class="s43" d="m1160.9 663.5c-1.4 5.3-5.1 18.1-7.7 25.8q0 0 0 0.1 0 0 0 0c-0.2 0.5-1.2 4.4-1.1 8.5v0.2q0 0.6 0 1.2v0.1q0 0.7 0 1.3 0 0 0 0c0 12.7-4.3 28.9-5.9 38q-0.2 0-0.5 0c0 0 1.8-15 3.8-25.4 1.6-8 0.2-15-0.6-17.8-0.2-0.8-0.4-1.3-0.4-1.3l2-4.4c2.1-5.9 3.1-19.7 3.1-19.7-3.8-10-3.7-22.3-3.7-22.3l3.8 0.8 6.2 8.5z"/>
									<path id="&lt;Path&gt;" class="s41" d="m1172.5 690.8c-4.2-4.5-10.6-2.9-8.1 3.8 2.7 7.2 11.1 27.1 15.4 41.3l0.3 0.9c0 0 2.1-0.2 5.6-1.4-1.9-9.1-2.7-24.7-7.2-35.8-1.5-3.6-3.8-6.5-6-8.8z"/>
									<g id="&lt;Group&gt;">
										<g id="&lt;Group&gt;">
											<path id="&lt;Path&gt;" class="s41" d="m1149.9 647.8c-0.2-10.4 12.3-2.7 18.3 1.1 2.5 1.6 3.3 4.6 3.5 7.3 0.2 2.8 1.7 31 2.1 36.1 0.8 11.6-8.9 4.7-9.6 1.4-1.9-8.2-14.2-40.2-14.3-45.9z"/>
										</g>
									</g>
									<path id="&lt;Path&gt;" class="s41" d="m1173.4 685.1c0 0 0 5.6 4.2 12.6 0 0-7.3-3.9-7.7-4.5-0.3-0.5-1.3-5.9-1.1-6.5 0.2-0.5 4.6-1.6 4.6-1.6z"/>
								</g>
								<path id="&lt;Path&gt;" class="s42" d="m1143.2 567.1c0 0-2 18.6 12 14.6 0.8 0.1 5-0.9 5.7-6.6 0.6-5.6-2.6-11.5-2.9-11.7-0.3-0.2-9.1-0.5-9.4-0.5-0.4 0-5.4 4.2-5.4 4.2z"/>
								<path id="&lt;Path&gt;" class="s44" d="m1155 571.8c0 0-2.2-0.9-1.6-3.9 0.5-2.9 0.1-3.1-2-1.8-2.1 1.2-12.9 7.1-11-6.6 1.2 0.7 5.1 0.6 5.9-1.1 0.8-1.7 10-6.3 13.5 0.4 2.4 0.1 5.2 2.9 4.9 8.3-0.3 5.5-2.3 12.5-4.3 12.9-2 0.3-3.1-1.3-3-3.9 0.1-1.3 4-3.1 1.1-7.1-1.2-1.3-4.7-0.2-3.5 2.8z"/>
								<path id="&lt;Path&gt;" class="s42" d="m1157.6 580.2c0 0-0.4 4 0.9 5.6-3 2.3-8.4 1.8-8.4 1.8 0 0 1.6-1.7 0-7.3-1.6-5.6 7.5-0.1 7.5-0.1z"/>
								<path id="&lt;Path&gt;" class="s9" d="m1141.7 610.4c0 0 3.9 3 6.7 3.3l-1.5-17-1.6 4.2z"/>
								<path id="&lt;Path&gt;" class="s13" d="m1141.7 610.4c0 0 3.9 3 6.7 3.3l-1.1-17.1-0.4 0.1c-0.7 2.2-2 6.9-1.8 11.5 0 0.4 0 2.2 0 3 0 0.6-2.1-0.4-3.4-0.8z"/>
								<path id="&lt;Path&gt;" class="s9" d="m1144.7 637.1q0 0 0.5 0.2c2.2 0.9 11.8 3.9 23.8-2.1 1.5-0.8 1.5-0.8 1.5-0.8 0 0-2-4.4-2.4-17.3-0.3-12.8 0-14.3-2.2-20.6-1.9-5.6-8-12.4-8-12.4 0 0-5.7 3.5-7.8 3.5-2.6 6.4-5.3 14.6-4.4 20.6 0.7 3.9 0 15.5-0.5 22.8-0.3 3.6-0.5 6.1-0.5 6.1z"/>
								<path id="&lt;Path&gt;" class="s13" d="m1144.7 637.1q0 0 0.5 0.2c5.1-3.9 11.8-9.7 13.6-12.2 2.2-2.9 3-8 3.2-10.3q0.5 0 1.1 0c1.8-8.8-1.1-16.8-1.1-16.8l-9.4 3.4-3.5 10.6c0 0 2.6 1.2 4.6 1.7-0.3 3.1-1.1 8.4-1.6 9.5-0.4 0.8-3.7 4.4-6.9 7.8-0.3 3.6-0.5 6.1-0.5 6.1z"/>
								<g id="&lt;Group&gt;">
									<g id="&lt;Group&gt;">
										<path id="&lt;Path&gt;" class="s18" d="m1109.7 617.1l-0.1 32.2h32.9v-32.2z"/>
										<path id="&lt;Path&gt;" class="s19" d="m1109.7 617.1v5.8l32.8 0.1v-5.9z"/>
										<path id="&lt;Path&gt;" class="s18" d="m1109.4 622.2l33.9 0.1v-5.8l-33.9-0.1z"/>
										<path id="&lt;Path&gt;" class="s20" d="m1123.5 616.4v9.8l0.6-1 0.6 1 0.6-1 0.6 1 0.6-1 0.6 1 0.6-1 0.7 1v-9.7z"/>
									</g>
								</g>
								<g id="&lt;Group&gt;">
									<g id="&lt;Group&gt;">
										<path id="&lt;Path&gt;" class="s42" d="m1134.9 646.2c0 1-1.9 3.6-3.3 3.9-0.4 0.2-0.9 0.2-1.4 0-0.6 0.3-2.7 0.5-1.9-0.7-1.3 1.1-2.8 1-4.4 0.9-0.5 0-0.5-0.7 0.7-1 1.7-0.4 2.9-1.5 3.8-3.1-0.3-0.2-0.5 0.1-1.2 0.2-0.7 0.2-1.1-0.2-1.1-0.5-0.1-0.3 0.8-0.5 1-0.7q1.2-0.7 2.3-1.4c0.8-0.6 1.4-0.8 2.4-0.9 0.2 0 1.8 0.1 1.4 0.7"/>
									</g>
									<path id="&lt;Path&gt;" class="s42" d="m1161.9 608.7c-2 4-7.3 17.3-8.1 18.9-3.2 6-19.4 19.1-19.4 19.1 0 0-2.7-0.5-2.7-3.2 4.6-3.2 13.4-16.8 15.2-18.4 1.2-1.1 6.6-22.2 6.6-22.2"/>
								</g>
								<path id="&lt;Path&gt;" class="s9" d="m1161.9 597.6c0 0 1.8 7.2 0 16-7.3 0.4-12.8-1.6-12.8-1.6l2.3-11.8"/>
							</g>
							<g id="&lt;Group&gt;">
								<g id="&lt;Group&gt;">
									<path id="&lt;Path&gt;" class="s40" d="m815.8 654.1c2.9 3.3 5.3 11.3 8.2 14.6 1.4 1.7 11.7 10.4 18.7 14.1 0.3-2 4.6-0.8 3.1-2.2-4.9-4.3-13.3-8.6-16.2-16.5-1.9-5.2-8.9-16.8-8.9-16.8"/>
								</g>
								<g id="&lt;Group&gt;">
									<g id="&lt;Group&gt;">
										<path id="&lt;Path&gt;" class="s21" d="m862 656v28.2h-28.8v-28.2z"/>
										<path id="&lt;Path&gt;" class="s19" d="m862 656v5.1h-28.8v-5.1z"/>
										<path id="&lt;Path&gt;" class="s21" d="m862.2 660.5l-29.7 0.1v-5.1l29.7-0.1z"/>
										<path id="&lt;Path&gt;" class="s18" d="m849.9 655.5v8.5l-0.5-0.9-0.6 0.9-0.5-0.9-0.5 0.9-0.6-0.9-0.5 0.9-0.5-0.9-0.6 0.9v-8.5z"/>
									</g>
								</g>
								<g id="&lt;Group&gt;">
									<path id="&lt;Path&gt;" class="s45" d="m803.6 766.8c0 0-1 5.7-0.7 6.4 0.3 0.7 1.5 2.8 2.7 3.5 1.3 0.8 4.1 1.6 4.3 2 0.2 0.3 0.3 0.8-0.1 1.1-1 0.9-2.8 1.3-3.9 1.1-3.8-0.5-4.2-2.1-6.4-2.3-0.3-0.1-1 0.5-2.1 0-1-0.5-1.5-1.5-1.5-2.4 0.1-1.5 1-2.8 1.6-4 0.6-1.2 0.9-6.4 0.9-6.4"/>
									<path id="&lt;Path&gt;" class="s46" d="m812 672.3l-14.8 0.4c0 0-5.8 8.2-3.4 16 1.2 3.8 2.7 5.6 3.3 7.4 0.6 1.7 5 25.7 4.8 27.5-0.2 1.8-2.2 6.7-2.9 11.9-0.8 6.3-0.1 26.6-0.7 32 1.8 1 3.5 1 5 0.9 2-15.6 7.1-36.6 7.8-44.4 0.7-7.8 1.8-32.9 0.9-51.7z"/>
									<g id="&lt;Group&gt;">
										<path id="&lt;Path&gt;" class="s47" d="m810.6 698c0 0-10.3-21.9-12.3-17.1-3.3 8 3 12.3 3 12.3 2.5 3.9 8 26.3 8.3 31.1 0.1 2.4 0 4.9 0.1 7.4 0 0.1 0.1 0.5 0.2 0.7 0.6-3.7 1-6.9 1.2-8.9 0.5-5.5 0.3-14.2-0.2-25.5q-0.1 0-0.3 0z"/>
									</g>
									<path id="&lt;Path&gt;" class="s44" d="m810.1 780.1c0.2-0.5 0.3-1.2 0-1.3-0.3-0.3-1.6-1.1-2.3-1.4-0.8-0.3-1.9-0.6-1.5-0.3 0.4 0.2-0.3 1-1 1-2.3-0.1-4.1-1.6-5.4-1.9-2-0.5-2.8-2.7-2.9-3.1-0.4 0.3-1.2 2.1-1.3 2.7-0.2 0.5-0.4 1.5-0.3 2 0.1 0.4 0.4 1.1 0.3 1.9 0 0 0.4 0.3 1.4 0.5 0.6 0.1 1.5 0 1.5 0l0.1-1.2c0 0 0.5-0.1 1.2 0 0.7 0.2 1.8 0.8 1.8 0.8 0.3 0.4 0.5 0.9 0.9 1.1 0.9 0.4 1.9 0.7 3.1 0.7 2.5 0.1 3.9-0.7 4.4-1.5z"/>
								</g>
								<g id="&lt;Group&gt;">
									<path id="&lt;Path&gt;" class="s45" d="m816 769.2c1.6 0 3 0 4.6 0.1-0.1 2.9 0.4 5 0.5 5.2 0.3 0.8 2 2.5 3.3 3.1 1.4 0.6 4.4 1 4.6 1.3 0.3 0.3 0.4 0.8 0.1 1.2-1 0.9-2.7 1.6-3.9 1.6-4 0.1-4.6-1.5-6.9-1.4-0.4 0.1-1 0.7-2.2 0.4-1.1-0.4-1.8-1.2-1.8-2.1-0.1-1.6 1.1-3.1 1.6-4.3 0.1-0.2 0-4.7 0.1-5.1z"/>
									<path id="&lt;Path&gt;" class="s46" d="m801 670.5l14.8 3.8c4.5 18.1 7.6 38.1 7.2 49.4-0.2 6.4-2 33.5-2.1 44.6q-0.1 0.4-0.1 1-2.4-0.1-4.8-0.1-0.1-0.2-0.1-0.4c-0.5-6.8-3.4-24.6-3.4-30.5 0.1-6.9 1.9-13.3 1.9-13.3 0 0-10-29.1-10.7-30.9-0.7-1.8-4.6-2.5-5.5-7.2-1.6-8 2.8-16.4 2.8-16.4z"/>
									<path id="&lt;Path&gt;" class="s44" d="m829.4 780.3c0.2-0.5 0.2-1.2-0.1-1.3-0.4-0.2-1.8-0.8-2.6-1-0.8-0.2-2-0.3-1.6-0.2 0.5 0.2-0.2 1.1-0.9 1.2-2.4 0.3-4.4-1-5.8-1.1-2.1-0.1-2.9-2.2-3-2.6-0.3 0.3-1.3 2.3-1.4 2.9-0.1 0.5-0.2 1.5 0 2 0.1 0.4 0.5 1.1 0.5 1.9 0 0 0.4 0.2 1.5 0.2 0.7 0 1.5-0.2 1.5-0.2v-1.2c0 0 0.5-0.2 1.3-0.1 0.7 0 1.5 0.3 2 0.6 0.3 0.3 0.7 0.7 1.1 0.8 1.1 0.3 1.9 0.4 3.1 0.2 2.6-0.3 4-1.2 4.4-2.1z"/>
								</g>
								<g id="&lt;Group&gt;">
									<path id="&lt;Path&gt;" class="s9" d="m814.6 633c1 0.3 0.7 2.7 1.7 3 0.7 0.3 2.2-0.1 2.9 0.3 3.6 2 2.7 6 3.2 11 1.5 3.8 1.9 7.3 0.8 9.4-1.5 2.7-3.1 3.4-4.9 5.6-1.3 1.7-1.8 5.1-2 8.7-0.1 0.6 0.5 1.7 0.3 2.3-0.2 1.2-2 1.6-4 1.6-4.5 0.2-11.4-1.4-13.5-1.3-1.9 0.1-3.7-0.8-3.5-2 0.1-0.7 0.9-1.1 1.2-2.6 0.6-3.4 1.1-11.7 1.6-14.6 1.3-7.3 2.2-12.7 5.1-19.4"/>
								</g>
								<g id="&lt;Group&gt;" style="opacity: .3">
									<path id="&lt;Path&gt;" class="s4" d="m825.1 650.3c-1.1-1.9-2.6-3.7-4.1-5.4l-3.9 1.8c1.8 3.5 2.2 7.6 3.1 11.5 0.9 0 2.2-0.3 2.2-0.3 0.4-0.6 0.3-0.3 0.8-1.2 0.8-1.4 1.8-3.8 1.9-6.4z"/>
								</g>
								<path id="&lt;Path&gt;" class="s45" d="m827.5 623c0.4-1.7 0.7-3.5 0.6-5-0.1-2.9-0.5-7.1-5.3-8.8-4.9-1.6-10.1-0.5-11.7 2.9-1.5 3.5-1.1 8.7-1.3 11.5-0.2 2.8-2.2 6.2-2.2 6.2l10.4 4.4c0 0 1.6-3.7 2.3-4.2 0.7-0.4 0.9 1.3 3.2 1.1 1-0.1 2-1.8 2.8-4q0-0.1 0.1-0.2c0.5-0.1 1.1-0.1 1.2-0.1 0.7-0.3 0.7-0.6 0.5-1-0.4-1-0.5-2-0.6-2.8z"/>
								<g id="&lt;Group&gt;">
									<path id="&lt;Path&gt;" class="s45" d="m842.4 682c0 0.9 1.6 3.1 2.9 3.5 0.4 0.1 0.8 0.1 1.2-0.1 0.6 0.3 2.3 0.4 1.7-0.6 1.1 0.9 2.4 0.9 3.8 0.8 0.5 0 0.5-0.6-0.6-0.9-1.4-0.4-2.5-1.3-3.3-2.7 0.2-0.2 0.4 0.1 1 0.2 0.7 0.1 1-0.2 1-0.5 0.1-0.2-0.7-0.4-0.9-0.5q-1-0.7-2-1.3c-0.7-0.5-1.2-0.7-2.1-0.8-0.1 0-1.5 0.1-1.2 0.6"/>
								</g>
								<path id="&lt;Path&gt;" class="s45" d="m818.8 649.2c1.7 3.5 6.3 15.2 7.1 16.5 2.8 5.3 17 16.7 17 16.7 0 0 2.3-0.4 2.3-2.8-4-2.7-11.7-14.7-13.3-16.1-1-0.9-5.8-19.4-5.8-19.4"/>
								<path id="&lt;Path&gt;" class="s9" d="m822.5 636.1c-3.9-1.5-7.7-1.5-10.7-4.4-3.1 2.3 3.8 15.8 5.5 16.2 1.7 0.3 4 7.8 4.4 8.8 5.4-0.2 7.4-3.2 7.4-3.2-2.3-6.8-2.8-16-6.6-17.4z"/>
								<g id="&lt;Group&gt;">
									<path id="&lt;Path&gt;" class="s44" d="m819.4 636.5c-0.3-1-1.1-1.9-1.3-2.9-0.2-1 0-2.2 0.6-3.1 0.3-0.5 0.8-0.9 1.3-1.3 2.1-1.7 2.9-3.1 2.1-5.7-0.2-0.8-0.5-1.6-0.4-2.5 0.1-0.8 0.2-1.6 1.1-1.7 0.6-0.1 0.9 0.1 1.2 0.5 0.1 0.4-0.2 2.9 0.6 1.5 0.8-1.4 1.5-1.5 1.4-4.6 0-0.4-0.1-1.8 0.1-2.1 1.5 1.1 1.9 2.9 2.1 4.2 1.1-0.5 1.3-2.1 1.3-2.6 0-1.3-0.1-2.2-0.6-3.1-1.9-4-3.9-4.8-5.6-5.5-1.6-0.6-3.3-1.3-5.1-1.3-1.7 0.1-3.9 0.7-4.4 2-2.5-0.6-3.8 1.5-4.4 2.3-0.8 1.1-1.5 2.4-1.9 3.7-0.6 1.9-0.7 4-1.2 6-0.4 1.6-1 3.2-2.3 4.4-1.1 1.1-2.8 1.2-4.1 2.2-1.6 1.2-2.5 3.3-2.4 5.4 0.1 2.1 1.2 4.3-0.1 6.2-0.4 0.6-0.9 1.1-1.3 1.8-0.9 1.4-0.8 3.4 0.1 4.8 0.9 1.5 2.7 3.1 4.3 3.6 1.6 0.5 2.9 0.7 4.6 0.6 2.9-0.2 5.4-0.1 8.6-2.8 1.7-1.5 0.6-2.4 2.3-4 0.9-0.9 2.3-1.4 3-2.6 0.5-1 0.6-2.2 0.4-3.3q0-0.1 0-0.1z"/>
								</g>
							</g>
							<g id="&lt;Group&gt;">
								<g id="&lt;Group&gt;">
									<path id="&lt;Path&gt;" class="s48" d="m796.5 433.3c0 2.9-2.4 5.2-5.3 5.2-2.9 0-5.2-2.3-5.2-5.2 0-2.9 2.3-5.3 5.2-5.3 2.9 0 5.3 2.4 5.3 5.3z"/>
									<path id="&lt;Path&gt;" class="s48" d="m932 244.7c0 2.9-2.4 5.3-5.3 5.3-2.9 0-5.2-2.4-5.2-5.3 0-2.9 2.3-5.2 5.2-5.2 2.9 0 5.3 2.3 5.3 5.2z"/>
									<path id="&lt;Path&gt;" class="s49" d="m1211 257.7c0 1.3-1.1 2.4-2.4 2.4-1.4 0-2.5-1.1-2.5-2.4 0-1.4 1.1-2.5 2.5-2.5 1.3 0 2.4 1.1 2.4 2.5z"/>
									<path id="&lt;Path&gt;" class="s49" d="m705.6 464.7c0 1.3-1.1 2.4-2.4 2.4-1.4 0-2.5-1.1-2.5-2.4 0-1.4 1.1-2.5 2.5-2.5 1.3 0 2.4 1.1 2.4 2.5z"/>
									<path id="&lt;Path&gt;" class="s48" d="m1223 366.4c0 2.9-2.4 5.3-5.3 5.3-2.9 0-5.2-2.4-5.2-5.3 0-2.9 2.3-5.2 5.2-5.2 2.9 0 5.3 2.3 5.3 5.2z"/>
									<path id="&lt;Path&gt;" class="s48" d="m1336.7 544.1c0 2.9-2.4 5.2-5.3 5.2-2.9 0-5.2-2.3-5.2-5.2 0-2.9 2.3-5.3 5.2-5.3 2.9 0 5.3 2.4 5.3 5.3z"/>
								</g>
								<g id="&lt;Group&gt;">
									<g id="&lt;Group&gt;">
										<path id="&lt;Path&gt;" class="s50" d="m1086.1 256.3v7.7"/>
										<path id="&lt;Path&gt;" class="s50" d="m1089.9 260.1h-7.7"/>
									</g>
									<g id="&lt;Group&gt;">
										<path id="&lt;Path&gt;" class="s50" d="m1306.1 324.9v7.7"/>
										<path id="&lt;Path&gt;" class="s50" d="m1309.9 328.8h-7.7"/>
									</g>
									<g id="&lt;Group&gt;">
										<path id="&lt;Path&gt;" class="s50" d="m1331.4 612.4v7.7"/>
										<path id="&lt;Path&gt;" class="s50" d="m1335.3 616.3h-7.7"/>
									</g>
									<g id="&lt;Group&gt;">
										<path id="&lt;Path&gt;" class="s50" d="m733.6 342.7v7.7"/>
										<path id="&lt;Path&gt;" class="s50" d="m737.5 346.6h-7.7"/>
									</g>
									<g id="&lt;Group&gt;">
										<path id="&lt;Path&gt;" class="s50" d="m771.7 540.4v7.7"/>
										<path id="&lt;Path&gt;" class="s50" d="m775.5 544.2h-7.7"/>
									</g>
									<g id="&lt;Group&gt;">
										<path id="&lt;Path&gt;" class="s50" d="m909 334.7v7.8"/>
										<path id="&lt;Path&gt;" class="s50" d="m912.8 338.6h-7.7"/>
									</g>
								</g>
							</g>
							<g id="&lt;Group&gt;">
								<g id="&lt;Group&gt;">
									<g id="&lt;Group&gt;">
										<path id="&lt;Path&gt;" class="s19" d="m1220.6 648v15.9l0.8-1.5 0.9 1.5 0.8-1.5 0.8 1.5 0.8-1.5 0.8 1.5 0.8-1.5 0.8 1.5 0.1-15.9z"/>
									</g>
									<g id="&lt;Group&gt;">
										<path id="&lt;Path&gt;" class="s21" d="m1199.6 649v52.8l43.7 0.1v-52.8z"/>
										<path id="&lt;Path&gt;" class="s19" d="m1199.6 649v9.6h43.7v-9.5z"/>
										<path id="&lt;Path&gt;" class="s21" d="m1199.3 657.5h45.1v-9.5l-45.1-0.1z"/>
										<path id="&lt;Path&gt;" class="s18" d="m1218 648v15.9l0.8-1.5 0.8 1.5 0.8-1.5 0.8 1.5 0.8-1.5 0.9 1.5 0.8-1.5 0.8 1.5v-15.9z"/>
									</g>
								</g>
								<g id="&lt;Group&gt;">
									<g id="&lt;Group&gt;">
										<path id="&lt;Path&gt;" class="s19" d="m1268 670.8l0.1 31.1-31.8 0.1-0.1-31.2z"/>
										<path id="&lt;Path&gt;" class="s19" d="m1268 670.8v5.6h-31.8v-5.6z"/>
										<path id="&lt;Path&gt;" class="s19" d="m1268.3 675.8h-32.8l-0.1-5.6 32.9-0.1z"/>
										<path id="&lt;Path&gt;" class="s19" d="m1254.7 670.1v9.4l-0.6-0.9-0.6 0.9-0.6-0.9-0.6 0.9-0.6-0.9-0.6 0.9-0.6-0.9-0.6 0.9v-9.3z"/>
									</g>
									<g id="&lt;Group&gt;">
										<path id="&lt;Path&gt;" class="s18" d="m1270 670.8v31.1l-31.8 0.1v-31.2z"/>
										<path id="&lt;Path&gt;" class="s19" d="m1270 670.8v5.6h-31.8v-5.6z"/>
										<path id="&lt;Path&gt;" class="s18" d="m1270.2 675.8h-32.8v-5.6l32.8-0.1z"/>
										<path id="&lt;Path&gt;" class="s20" d="m1256.6 670.1v9.4l-0.6-0.9-0.6 0.9-0.6-0.9-0.5 0.9-0.6-0.9-0.6 0.9-0.6-0.9-0.6 0.9v-9.4z"/>
									</g>
								</g>
							</g>
							<g id="&lt;Group&gt;" style="opacity: .9">
								<path id="&lt;Path&gt;" class="s11" d="m763.7 278.7h-4.9v-15.6h4.9z"/>
								<path id="&lt;Path&gt;" class="s11" d="m876.2 278.7h-4.9v-15.6h4.9z"/>
								<path id="&lt;Path&gt;" class="s8" d="m825.9 277.4h-18.7c-3.8 0-6.8-3.1-6.8-6.8 0-3.8 3-6.9 6.8-6.9h18.7c3.8 0 6.8 3.1 6.8 6.9 0 3.7-3 6.8-6.8 6.8z"/>
								<path id="&lt;Path&gt;" class="s8" d="m870 280.6h-105v-3.2h105z"/>
								<path id="&lt;Path&gt;" class="s8" d="m761.3 299.8c-4.3 0-7.7-3.4-7.7-7.7v-9.7c0-4.3 3.4-7.7 7.7-7.7 4.2 0 7.6 3.4 7.6 7.7v9.7c0 4.3-3.4 7.7-7.6 7.7z"/>
								<path id="&lt;Path&gt;" class="s7" d="m791.8 260.6h-61v-1.2h61z"/>
								<path id="&lt;Path&gt;" class="s8" d="m873.7 299.8c-4.2 0-7.6-3.4-7.6-7.7v-9.7c0-4.3 3.4-7.7 7.6-7.7 4.3 0 7.7 3.4 7.7 7.7v9.7c0 4.3-3.4 7.7-7.7 7.7z"/>
								<path id="&lt;Path&gt;" class="s7" d="m904.3 260.6h-61.1v-1.2h61.1z"/>
								<path id="&lt;Path&gt;" class="s8" d="m821.8 313.3h-10.4v-5.6h10.4z"/>
								<g id="&lt;Group&gt;">
									<g id="&lt;Group&gt;">
										<g id="&lt;Group&gt;">
											<path id="&lt;Path&gt;" class="s21" d="m788.6 319.5l-0.1 54.1h55.2l0.1-54z"/>
											<path id="&lt;Path&gt;" class="s19" d="m788.6 319.5v9.8h55.1l0.1-9.7z"/>
											<path id="&lt;Path&gt;" class="s21" d="m788.1 328.2h57v-9.7l-57-0.1z"/>
											<path id="&lt;Path&gt;" class="s18" d="m811.7 318.4v16.3l1-1.5 1.1 1.5 1-1.5 1 1.5 1.1-1.5 1 1.5 1-1.5 1.1 1.5v-16.3z"/>
										</g>
									</g>
									<path id="&lt;Path&gt;" class="s51" d="m793.2 374h-8.4v-60.7h63.7v60.3h-10.2"/>
								</g>
								<path id="&lt;Path&gt;" class="s11" d="m831.4 309h-27.8c-5 0-9.1-4.1-9.1-9.1v-20.3c0-5 4.1-9.1 9.1-9.1h27.8c5.1 0 9.1 4.1 9.1 9.1v20.3c0 5-4 9.1-9.1 9.1z"/>
								<path id="&lt;Path&gt;" class="s52" d="m827.2 304.7h-19.3c-4.6 0-8.3-3.7-8.3-8.2v-13.5c0-4.5 3.7-8.2 8.3-8.2h19.3c4.5 0 8.2 3.7 8.2 8.2v13.5c0 4.5-3.7 8.2-8.2 8.2z"/>
								<g id="&lt;Group&gt;">
									<path id="&lt;Path&gt;" class="s8" d="m762.4 263.5h-2.3v-2.9h2.3z"/>
									<path id="&lt;Path&gt;" class="s7" d="m763.9 260.1c0 1.5-5.2 1.5-5.2 0 0-1.4 1.1-2.6 2.6-2.6 1.4 0 2.6 1.2 2.6 2.6z"/>
								</g>
								<g id="&lt;Group&gt;">
									<path id="&lt;Path&gt;" class="s8" d="m874.9 263.5h-2.3v-2.9h2.3z"/>
									<path id="&lt;Path&gt;" class="s7" d="m876.4 260.1c0 1.5-5.3 1.5-5.3 0 0-1.4 1.2-2.6 2.6-2.6 1.5 0 2.7 1.2 2.7 2.6z"/>
								</g>
							</g>
						</g>
					</g>
					<g id="&lt;Group&gt;">
						<g id="&lt;Group&gt;">
						</g>
						<g id="&lt;Group&gt;">
						</g>
					</g>
				</g>
			</g>
		</g>
	</g>
	<g id="DESIGNED BY FREEPIK">
		<g id="&lt;Group&gt;">
		</g>
	</g>
</svg>